<svg xmlns:inkscape="http://www.inkscape.org/namespaces/inkscape" xmlns:dc="http://purl.org/dc/elements/1.1/" xmlns:rdf="http://www.w3.org/1999/02/22-rdf-syntax-ns#" xmlns:sodipodi="http://sodipodi.sourceforge.net/DTD/sodipodi-0.dtd" xmlns:svg="http://www.w3.org/2000/svg" xmlns:cc="http://creativecommons.org/ns#" xmlns="http://www.w3.org/2000/svg" xmlns:xlink="http://www.w3.org/1999/xlink" version="1.1" inkscape:version="0.48.3.1 r9886" x="0px" y="0px" viewBox="183 -400.9 766.6 1074.9" enable-background="new 183 -400.9 766.6 1074.9" xml:space="preserve">
<g transform="matrix(0.93646339,0,0,0.93646339,113.85022,-58.997963)">
	<g>
		<g transform="matrix(0,1.0678474,-1.0678474,0,-322.49036,428.45242)">
			<g transform="matrix(0,-1,1,0,-18.030545,5.7959495)">
				
					<path inkscape:connector-curvature="0" fill="#FFFFFF" stroke="#231F20" stroke-width="0.4" stroke-miterlimit="22.9256" d=" M591.6-582v-18.4h92.6v18.4H591.6z"/>
				
					<path inkscape:connector-curvature="0" fill="#FFFFFF" stroke="#231F20" stroke-width="0.4" stroke-miterlimit="22.93" d=" M490.9-392.5v-55.4L508-448l5.6 5.4v44.4l-5.1 5.6H490.9L490.9-392.5z"/>
				
					<path inkscape:connector-curvature="0" fill="none" stroke="#231F20" stroke-width="0.5" stroke-miterlimit="22.93" d=" M548.5-705.6l-17.8 35.7l-35.7 17.8v52.9l35.7 17.8h-89.8l-34.8 17.4v291.6l34.6 17.3l90 0l-35.7 17.8v52.9l35.7 17.8L537-154 h131.6l-0.1 23.2c23 0 22.1 0.1 49.2 0l17.8-35.7l35.7-17.8v-52.9l-35.7-17.8c29.2 0 62.3-0.1 89.3-0.2l35.2-17.6v-53.1h-20.5 v-123.5H860v-114.3l-34.7-17.3c-31.3-0.1-68.9-0.2-89.9-0.2l35.7-17.8v-52.9l-35.7-17.8l-17.8-35.7H548.5z"/>
				
					<path inkscape:connector-curvature="0" fill="#FFFFFF" stroke="#231F20" stroke-width="0.4" stroke-miterlimit="22.9256" d=" M615.5-180.3v-55.8h53.4v55.8H615.5z"/>
				
					<path inkscape:connector-curvature="0" fill="#FFFFFF" stroke="#231F20" stroke-width="0.6576" stroke-miterlimit="22.9256" d=" M542.6-593.6v-17.3h34.7v17.3H542.6z"/>
				
					<path inkscape:connector-curvature="0" fill="none" stroke="#231F20" stroke-width="0.5669" stroke-miterlimit="22.9256" stroke-dasharray="2.83,1.7" d=" M735.6-166.5l-0.1-503.4H530.7l0 503.4L735.6-166.5L735.6-166.5z"/>
				
					<path inkscape:connector-curvature="0" fill="none" stroke="#231F20" stroke-width="0.5669" stroke-miterlimit="22.9256" stroke-dasharray="2.83,1.7" d=" M530.8-255.1h204.8"/>
				
					<path inkscape:connector-curvature="0" fill="none" stroke="#231F20" stroke-width="0.5669" stroke-miterlimit="22.9256" stroke-dasharray="2.83,1.7" d=" M530.7-581.3h204.8"/>
				<g transform="matrix(1,0,0,-1,-16.582343,-257.65045)">
					<path inkscape:connector-curvature="0" fill="#231F20" d="M637 349.7l1.8 0.1c0-0.3 0.1-0.5 0.2-0.7 c0.2-0.3 0.5-0.4 0.9-0.4c0.3 0 0.5 0.1 0.6 0.2c0.2 0.1 0.2 0.3 0.2 0.5c0 0.2-0.1 0.3-0.2 0.4c-0.1 0.1-0.5 0.2-1 0.4 c-0.8 0.2-1.5 0.4-1.8 0.8c-0.4 0.3-0.5 0.7-0.5 1.2c0 0.3 0.1 0.6 0.3 0.9c0.2 0.3 0.5 0.5 0.8 0.7c0.4 0.2 0.9 0.2 1.5 0.2 c0.8 0 1.4-0.1 1.8-0.4c0.4-0.3 0.7-0.8 0.8-1.4l-1.8-0.1c0 0.3-0.2 0.5-0.3 0.6c-0.2 0.1-0.4 0.2-0.6 0.2 c-0.2 0-0.4 0-0.5-0.1c-0.1-0.1-0.2-0.2-0.2-0.3c0-0.1 0-0.2 0.1-0.3c0.1-0.1 0.3-0.2 0.6-0.2c0.8-0.2 1.5-0.4 1.8-0.6 c0.4-0.2 0.6-0.4 0.8-0.7c0.2-0.3 0.3-0.6 0.3-0.9c0-0.4-0.1-0.8-0.3-1.1c-0.2-0.3-0.5-0.6-0.9-0.8c-0.4-0.2-0.9-0.3-1.5-0.3 c-1.1 0-1.8 0.2-2.2 0.6S637 349 637 349.7"/>
					<path inkscape:connector-curvature="0" fill="#231F20" d="M643.2 353.8h2.9c0.6 0 1-0.1 1.4-0.2 c0.4-0.2 0.6-0.4 0.9-0.7c0.2-0.3 0.4-0.6 0.5-1c0.1-0.4 0.2-0.8 0.2-1.2c0-0.7-0.1-1.2-0.2-1.6c-0.2-0.4-0.4-0.7-0.6-0.9 c-0.3-0.2-0.6-0.4-0.9-0.5c-0.4-0.1-0.8-0.2-1.2-0.2h-2.9V353.8 M645.1 352.4V349h0.5c0.4 0 0.7 0 0.9 0.1 c0.2 0.1 0.3 0.2 0.4 0.5c0.1 0.2 0.1 0.6 0.1 1.1c0 0.7-0.1 1.1-0.3 1.4c-0.2 0.2-0.6 0.4-1.1 0.4H645.1"/>
					<path inkscape:connector-curvature="0" fill="#231F20" d="M656.1 350.1l1.7-0.5c-0.1-0.5-0.3-0.9-0.5-1.2 c-0.2-0.3-0.5-0.6-0.9-0.7c-0.4-0.2-0.8-0.2-1.4-0.2c-0.7 0-1.2 0.1-1.7 0.3c-0.4 0.2-0.8 0.5-1.1 1c-0.3 0.5-0.5 1.1-0.5 1.9 c0 1 0.3 1.8 0.8 2.4c0.6 0.6 1.3 0.8 2.3 0.8c0.8 0 1.4-0.2 1.9-0.5c0.5-0.3 0.8-0.8 1-1.5l-1.7-0.4c-0.1 0.2-0.1 0.3-0.2 0.4 c-0.1 0.1-0.2 0.3-0.4 0.3c-0.2 0.1-0.3 0.1-0.5 0.1c-0.4 0-0.8-0.2-1-0.5c-0.2-0.3-0.3-0.7-0.3-1.2c0-0.7 0.1-1.2 0.3-1.4 c0.2-0.3 0.5-0.4 0.9-0.4c0.4 0 0.6 0.1 0.8 0.3C655.8 349.4 656 349.7 656.1 350.1"/>
					<path inkscape:connector-curvature="0" fill="#231F20" d="M659.7 350.7l-1.7 0.2c0.1 0.3 0.2 0.5 0.3 0.7 c0.1 0.2 0.3 0.3 0.5 0.4c0.2 0.1 0.4 0.2 0.7 0.2c0.3 0 0.6 0.1 0.9 0.1c0.5 0 0.9 0 1.3-0.1c0.3-0.1 0.6-0.2 0.8-0.4 c0.1-0.1 0.3-0.3 0.4-0.5c0.1-0.2 0.1-0.5 0.1-0.7v-2c0-0.2 0-0.4 0-0.5c0-0.1 0.1-0.3 0.2-0.5h-1.6c-0.1 0.1-0.1 0.2-0.1 0.3 c0 0.1 0 0.2-0.1 0.3c-0.2-0.2-0.5-0.4-0.7-0.5c-0.3-0.1-0.7-0.2-1.1-0.2c-0.5 0-1 0.1-1.2 0.4c-0.3 0.3-0.4 0.6-0.4 0.9 c0 0.3 0.1 0.6 0.3 0.9s0.6 0.4 1.1 0.5c0.7 0.1 1.1 0.2 1.3 0.3c0.2 0.1 0.4 0.1 0.6 0.2c0 0.2 0 0.4-0.1 0.4 c-0.1 0.1-0.2 0.1-0.5 0.1c-0.3 0-0.5 0-0.6-0.1C659.8 351 659.8 350.8 659.7 350.7 M661.2 349.7c-0.2-0.1-0.5-0.2-0.7-0.2 c-0.4-0.1-0.6-0.2-0.7-0.3c-0.1-0.1-0.1-0.2-0.1-0.3c0-0.1 0-0.2 0.1-0.3c0.1-0.1 0.2-0.1 0.4-0.1c0.2 0 0.4 0 0.5 0.1 c0.2 0.1 0.3 0.2 0.4 0.3c0.1 0.1 0.1 0.3 0.1 0.5L661.2 349.7"/>
					<path inkscape:connector-curvature="0" fill="#231F20" d="M663 352.1h1.6v-0.7c0.2 0.3 0.3 0.5 0.5 0.7 c0.2 0.1 0.4 0.2 0.6 0.2c0.3 0 0.5-0.1 0.8-0.2l-0.5-1.2c-0.2 0.1-0.4 0.1-0.5 0.1c-0.2 0-0.4-0.1-0.5-0.3 c-0.2-0.3-0.3-0.8-0.3-1.5v-1.5H663V352.1"/>
					<path inkscape:connector-curvature="0" fill="#231F20" d="M670.7 353.8v-6.3H669v0.7c-0.2-0.3-0.4-0.5-0.6-0.6 c-0.3-0.1-0.5-0.2-0.8-0.2c-0.6 0-1.1 0.2-1.4 0.7c-0.3 0.5-0.5 1-0.5 1.7c0 0.8 0.2 1.3 0.5 1.7c0.4 0.4 0.8 0.6 1.4 0.6 c0.3 0 0.5 0 0.7-0.1c0.2-0.1 0.4-0.2 0.6-0.4v2.2H670.7 M668.9 349.9c0 0.4-0.1 0.6-0.2 0.8c-0.2 0.2-0.3 0.3-0.6 0.3 c-0.2 0-0.4-0.1-0.5-0.3c-0.1-0.2-0.2-0.5-0.2-0.8c0-0.4 0.1-0.6 0.2-0.8c0.1-0.2 0.3-0.3 0.5-0.3c0.2 0 0.4 0.1 0.6 0.3 C668.8 349.2 668.9 349.5 668.9 349.9"/>
				</g>
				<g transform="matrix(1,0,0,-1,-16.582343,-257.65045)">
					<path inkscape:connector-curvature="0" fill="#1A1A1A" d="M563 364.4h3.2c0.7 0 1.2-0.2 1.6-0.5 c0.4-0.3 0.5-0.8 0.5-1.4c0-0.6-0.2-1.1-0.6-1.5c-0.4-0.4-1-0.5-1.7-0.5h-1.1v-2.3H563V364.4 M564.9 361.7h0.5 c0.4 0 0.6 0.1 0.8 0.2c0.2 0.1 0.2 0.3 0.2 0.5c0 0.2-0.1 0.4-0.2 0.5c-0.1 0.1-0.4 0.2-0.7 0.2h-0.6V361.7"/>
					<path inkscape:connector-curvature="0" fill="#1A1A1A" d="M568.5 360.4c0 0.7 0.2 1.3 0.7 1.7 c0.5 0.5 1.1 0.7 1.9 0.7c0.9 0 1.6-0.3 2.1-0.8c0.4-0.4 0.6-0.9 0.6-1.6c0-0.7-0.2-1.3-0.7-1.7c-0.5-0.4-1.1-0.7-1.9-0.7 c-0.7 0-1.3 0.2-1.8 0.6C568.8 359 568.5 359.6 568.5 360.4 M570.2 360.4c0-0.4 0.1-0.7 0.2-0.9c0.2-0.2 0.4-0.3 0.6-0.3 c0.3 0 0.5 0.1 0.6 0.3c0.2 0.2 0.2 0.5 0.2 0.9c0 0.4-0.1 0.7-0.2 0.9c-0.2 0.2-0.4 0.3-0.6 0.3c-0.3 0-0.5-0.1-0.6-0.3 C570.3 361.1 570.2 360.8 570.2 360.4"/>
					<path inkscape:connector-curvature="0" fill="#1A1A1A" d="M573.1 362.7h1.7l0.7-2.9l0.9 2.9h1.6l1-2.9l0.7 2.9 h1.7l-1.7-4.5h-1.5l-0.9 2.7l-0.9-2.7h-1.6L573.1 362.7"/>
					<path inkscape:connector-curvature="0" fill="#1A1A1A" d="M584.9 360h-3.5c0-0.3 0.1-0.5 0.2-0.6 c0.2-0.2 0.4-0.3 0.7-0.3c0.2 0 0.3 0 0.5 0.1c0.1 0.1 0.2 0.1 0.3 0.3l1.7-0.2c-0.3-0.5-0.6-0.8-0.9-1 c-0.4-0.2-0.9-0.3-1.6-0.3c-0.6 0-1.1 0.1-1.4 0.3c-0.3 0.2-0.6 0.4-0.9 0.8c-0.2 0.4-0.3 0.8-0.3 1.3c0 0.7 0.2 1.3 0.7 1.7 c0.5 0.4 1.1 0.7 1.9 0.7c0.6 0 1.2-0.1 1.5-0.3s0.7-0.5 0.9-0.9c0.2-0.4 0.3-0.9 0.3-1.5V360 M583.2 360.8 c0 0.3-0.1 0.6-0.3 0.7c-0.1 0.1-0.3 0.2-0.6 0.2c-0.3 0-0.5-0.1-0.7-0.3c-0.1-0.1-0.2-0.3-0.2-0.6H583.2"/>
					<path inkscape:connector-curvature="0" fill="#1A1A1A" d="M584.8 362.7h1.6v-0.7c0.2 0.3 0.3 0.5 0.5 0.7 c0.2 0.1 0.4 0.2 0.6 0.2c0.3 0 0.5-0.1 0.8-0.2l-0.5-1.2c-0.2 0.1-0.4 0.1-0.5 0.1c-0.2 0-0.4-0.1-0.5-0.3 c-0.2-0.3-0.3-0.8-0.3-1.5v-1.5h-1.7V362.7"/>
				</g>
				<g transform="matrix(0,1,1,0,-16.582343,-257.65045)">
					<path inkscape:connector-curvature="0" fill="#231F20" d="M-150.7 494.8h-1.9v2.2h-2.1v-2.2h-1.9v6.3h1.9v-2.5 h2.1v2.5h1.9V494.8"/>
					<path inkscape:connector-curvature="0" fill="#231F20" d="M-157.1 494.8h-2.9c-0.6 0-1 0.1-1.4 0.2 c-0.4 0.2-0.6 0.4-0.9 0.7c-0.2 0.3-0.4 0.6-0.5 1c-0.1 0.4-0.2 0.8-0.2 1.2c0 0.7 0.1 1.2 0.2 1.6c0.2 0.4 0.4 0.7 0.6 0.9 c0.3 0.2 0.6 0.4 0.9 0.5c0.4 0.1 0.8 0.2 1.2 0.2h2.9V494.8 M-159 496.2v3.4h-0.5c-0.4 0-0.7 0-0.9-0.1 c-0.2-0.1-0.3-0.2-0.4-0.5c-0.1-0.2-0.1-0.6-0.1-1.1c0-0.7 0.1-1.1 0.3-1.4c0.2-0.2 0.6-0.4 1.1-0.4H-159"/>
					<path inkscape:connector-curvature="0" fill="#231F20" d="M-163.3 494.8h-2.5l-1 3.8l-1-3.8h-2.5v6.3h1.6v-4.8 l1.2 4.8h1.4l1.2-4.8v4.8h1.6V494.8"/>
					<path inkscape:connector-curvature="0" fill="#231F20" d="M-170.7 494.8h-1.9v6.3h1.9V494.8"/>
				</g>
				<g transform="matrix(1,0,0,-1,-16.582343,-257.65045)">
					<path inkscape:connector-curvature="0" fill="#231F20" d="M568.4-70.7h5.2V-72h-3.2v-1h3v-1.3h-3v-1.2h3.3V-77 h-5.3V-70.7"/>
					<path inkscape:connector-curvature="0" fill="#231F20" d="M576.3-70.7v-1.7h1v-1.3h-1v-1.6c0-0.2 0-0.3 0.1-0.4 c0.1-0.1 0.2-0.1 0.3-0.1c0.1 0 0.3 0 0.5 0.1l0.1-1.2c-0.4-0.1-0.8-0.1-1.2-0.1c-0.4 0-0.8 0.1-1 0.2s-0.4 0.3-0.5 0.5 c-0.1 0.2-0.1 0.6-0.1 1.1v1.6h-0.6v1.3h0.6v0.8L576.3-70.7"/>
					<path inkscape:connector-curvature="0" fill="#231F20" d="M576.6-70.7h1.7V-73c0.2 0.2 0.5 0.4 0.7 0.5 c0.2 0.1 0.5 0.2 0.8 0.2c0.5 0 0.8-0.1 1.1-0.4c0.3-0.3 0.4-0.7 0.4-1.3V-77h-1.7v2.5c0 0.3-0.1 0.5-0.2 0.6 c-0.1 0.1-0.3 0.2-0.4 0.2c-0.2 0-0.4-0.1-0.5-0.2c-0.1-0.2-0.2-0.4-0.2-0.9V-77h-1.7V-70.7"/>
					<path inkscape:connector-curvature="0" fill="#231F20" d="M586.5-75.1H583c0-0.3 0.1-0.5 0.2-0.6 c0.2-0.2 0.4-0.3 0.7-0.3c0.2 0 0.3 0 0.5 0.1c0.1 0.1 0.2 0.1 0.3 0.3l1.7-0.2c-0.3-0.5-0.6-0.8-0.9-1 c-0.4-0.2-0.9-0.3-1.6-0.3c-0.6 0-1.1 0.1-1.4 0.3c-0.3 0.2-0.6 0.4-0.9 0.8c-0.2 0.4-0.3 0.8-0.3 1.3c0 0.7 0.2 1.3 0.7 1.7 c0.5 0.4 1.1 0.7 1.9 0.7c0.6 0 1.2-0.1 1.5-0.3s0.7-0.5 0.9-0.9s0.3-0.9 0.3-1.5V-75.1 M584.7-74.3c0 0.3-0.1 0.6-0.3 0.7 c-0.1 0.1-0.3 0.2-0.6 0.2c-0.3 0-0.5-0.1-0.7-0.3c-0.1-0.1-0.2-0.3-0.2-0.6H584.7"/>
					<path inkscape:connector-curvature="0" fill="#231F20" d="M586.3-72.4h1.6v-0.7c0.2 0.3 0.3 0.5 0.5 0.7 c0.2 0.1 0.4 0.2 0.6 0.2c0.3 0 0.5-0.1 0.8-0.2l-0.5-1.2c-0.2 0.1-0.4 0.1-0.5 0.1c-0.2 0-0.4-0.1-0.5-0.3 c-0.2-0.3-0.3-0.8-0.3-1.5V-77h-1.7V-72.4"/>
					<path inkscape:connector-curvature="0" fill="#231F20" d="M589.2-72.4h1.6v-0.7c0.2 0.3 0.5 0.5 0.7 0.6 c0.2 0.1 0.5 0.2 0.9 0.2c0.5 0 0.9-0.1 1.1-0.4c0.3-0.3 0.4-0.7 0.4-1.3V-77h-1.7v2.5c0 0.3-0.1 0.5-0.2 0.6 c-0.1 0.1-0.3 0.2-0.4 0.2c-0.2 0-0.4-0.1-0.5-0.2c-0.1-0.2-0.2-0.4-0.2-0.9V-77h-1.7V-72.4"/>
					<path inkscape:connector-curvature="0" fill="#231F20" d="M599.1-75.1h-3.5c0-0.3 0.1-0.5 0.2-0.6 c0.2-0.2 0.4-0.3 0.7-0.3c0.2 0 0.3 0 0.5 0.1c0.1 0.1 0.2 0.1 0.3 0.3l1.7-0.2c-0.3-0.5-0.6-0.8-0.9-1 c-0.4-0.2-0.9-0.3-1.6-0.3c-0.6 0-1.1 0.1-1.4 0.3c-0.3 0.2-0.6 0.4-0.9 0.8c-0.2 0.4-0.3 0.8-0.3 1.3c0 0.7 0.2 1.3 0.7 1.7 c0.5 0.4 1.1 0.7 1.9 0.7c0.6 0 1.2-0.1 1.5-0.3s0.7-0.5 0.9-0.9s0.3-0.9 0.3-1.5V-75.1 M597.4-74.3c0 0.3-0.1 0.6-0.3 0.7 c-0.1 0.1-0.3 0.2-0.6 0.2c-0.3 0-0.5-0.1-0.7-0.3c-0.1-0.1-0.2-0.3-0.2-0.6H597.4"/>
					<path inkscape:connector-curvature="0" fill="#231F20" d="M601.1-70.7v-1.7h1v-1.3h-1v-1.6c0-0.2 0-0.3 0.1-0.4 c0.1-0.1 0.2-0.1 0.3-0.1c0.1 0 0.3 0 0.5 0.1l0.1-1.2c-0.4-0.1-0.8-0.1-1.2-0.1c-0.4 0-0.8 0.1-1 0.2s-0.4 0.3-0.5 0.5 c-0.1 0.2-0.1 0.6-0.1 1.1v1.6h-0.6v1.3h0.6v0.8L601.1-70.7"/>
				</g>
				<g transform="matrix(1,0,0,-1,-16.582343,-257.65045)">
					<path inkscape:connector-curvature="0" fill="#231F20" d="M654.8-81.5h1.9v-3.7c0-0.4-0.1-0.7-0.2-1.1 c-0.1-0.3-0.3-0.6-0.5-0.9c-0.2-0.2-0.5-0.4-0.8-0.5c-0.4-0.1-0.8-0.2-1.4-0.2c-0.3 0-0.6 0-1 0.1c-0.4 0-0.7 0.1-0.9 0.3 c-0.2 0.1-0.5 0.3-0.7 0.5c-0.2 0.2-0.3 0.5-0.4 0.7c-0.1 0.4-0.2 0.8-0.2 1.1v3.7h1.9v-3.8c0-0.3 0.1-0.6 0.3-0.8 c0.2-0.2 0.5-0.3 0.8-0.3c0.3 0 0.6 0.1 0.8 0.3c0.2 0.2 0.3 0.5 0.3 0.8V-81.5"/>
					<path inkscape:connector-curvature="0" fill="#231F20" d="M656.7-85.7l1.8 0.1c0-0.3 0.1-0.5 0.2-0.7 c0.2-0.3 0.5-0.4 0.9-0.4c0.3 0 0.5 0.1 0.6 0.2c0.2 0.1 0.2 0.3 0.2 0.5c0 0.2-0.1 0.3-0.2 0.4c-0.1 0.1-0.5 0.2-1 0.4 c-0.8 0.2-1.5 0.4-1.8 0.8c-0.4 0.3-0.5 0.7-0.5 1.2c0 0.3 0.1 0.6 0.3 0.9c0.2 0.3 0.5 0.5 0.8 0.7c0.4 0.2 0.9 0.2 1.5 0.2 c0.8 0 1.4-0.1 1.8-0.4c0.4-0.3 0.7-0.8 0.8-1.4l-1.8-0.1c0 0.3-0.2 0.5-0.3 0.6c-0.2 0.1-0.4 0.2-0.6 0.2 c-0.2 0-0.4 0-0.5-0.1c-0.1-0.1-0.2-0.2-0.2-0.3c0-0.1 0-0.2 0.1-0.3c0.1-0.1 0.3-0.2 0.6-0.2c0.8-0.2 1.5-0.4 1.8-0.6 c0.4-0.2 0.6-0.4 0.8-0.7c0.2-0.3 0.3-0.6 0.3-0.9c0-0.4-0.1-0.8-0.3-1.1c-0.2-0.3-0.5-0.6-0.9-0.8c-0.4-0.2-0.9-0.3-1.5-0.3 c-1.1 0-1.8 0.2-2.2 0.6S656.7-86.3 656.7-85.7"/>
					<path inkscape:connector-curvature="0" fill="#231F20" d="M662.8-81.5h3.6c0.6 0 1.1-0.1 1.4-0.4 c0.3-0.3 0.5-0.7 0.5-1.1c0-0.4-0.1-0.7-0.3-1c-0.2-0.2-0.4-0.3-0.7-0.4c0.5-0.1 0.8-0.3 1-0.6c0.2-0.3 0.3-0.6 0.3-1 c0-0.3-0.1-0.6-0.2-0.9c-0.2-0.3-0.4-0.5-0.6-0.6c-0.2-0.1-0.4-0.2-0.7-0.2c-0.4-0.1-0.7-0.1-0.9-0.1h-3.3V-81.5 M664.8-84h0.8 c0.3 0 0.5 0.1 0.6 0.2c0.1 0.1 0.2 0.3 0.2 0.5c0 0.2-0.1 0.3-0.2 0.4c-0.1 0.1-0.3 0.2-0.6 0.2h-0.9V-84 M664.8-86.4h1 c0.3 0 0.6 0.1 0.7 0.2c0.1 0.1 0.2 0.3 0.2 0.5c0 0.2-0.1 0.3-0.2 0.4c-0.1 0.1-0.4 0.2-0.7 0.2h-1V-86.4"/>
				</g>
				
					<path inkscape:connector-curvature="0" fill="#FFFFFF" stroke="#231F20" stroke-width="0.4" stroke-miterlimit="22.9256" d=" M766.5-418.5c0-9.2 7.5-16.7 16.7-16.7c9.2 0 16.7 7.5 16.7 16.7c0 9.2-7.5 16.7-16.7 16.7C774-401.7 766.5-409.2 766.5-418.5z"/>
				<g transform="matrix(0,-1,-1,0,-16.582343,-257.65045)">
					<path inkscape:connector-curvature="0" fill="#231F20" d="M182.7-825.4v-6.3h-3.2c-0.6 0-1.1 0.1-1.4 0.2 c-0.3 0.1-0.6 0.3-0.8 0.6c-0.2 0.3-0.3 0.6-0.3 1c0 0.3 0.1 0.6 0.2 0.9c0.1 0.3 0.4 0.5 0.6 0.6c0.2 0.1 0.4 0.2 0.7 0.2 c-0.2 0.1-0.4 0.2-0.5 0.2c-0.1 0.1-0.2 0.2-0.3 0.3c-0.1 0.2-0.2 0.3-0.3 0.4l-0.9 1.8h2.2l1-1.9c0.1-0.2 0.2-0.4 0.4-0.5 c0.1-0.1 0.3-0.1 0.5-0.1h0.2v2.5H182.7 M180.7-829.1h-0.8c-0.1 0-0.3 0-0.5-0.1c-0.1 0-0.2-0.1-0.3-0.2 c-0.1-0.1-0.1-0.2-0.1-0.4c0-0.2 0.1-0.4 0.2-0.5c0.1-0.1 0.4-0.2 0.7-0.2h0.9V-829.1"/>
					<path inkscape:connector-curvature="0" fill="#231F20" d="M172.2-828l-1.7 0.5c0.1 0.5 0.3 0.9 0.5 1.2 c0.2 0.3 0.5 0.6 0.9 0.7c0.4 0.2 0.8 0.2 1.4 0.2c0.7 0 1.2-0.1 1.7-0.3c0.4-0.2 0.8-0.5 1.1-1c0.3-0.5 0.5-1.1 0.5-1.9 c0-1-0.3-1.8-0.8-2.4c-0.6-0.6-1.3-0.8-2.3-0.8c-0.8 0-1.4 0.2-1.9 0.5c-0.5 0.3-0.8 0.8-1 1.5l1.7 0.4 c0.1-0.2 0.1-0.3 0.2-0.4c0.1-0.1 0.2-0.3 0.4-0.3c0.2-0.1 0.3-0.1 0.5-0.1c0.4 0 0.8 0.2 1 0.5c0.2 0.3 0.3 0.7 0.3 1.2 c0 0.7-0.1 1.2-0.3 1.4c-0.2 0.3-0.5 0.4-0.9 0.4c-0.4 0-0.6-0.1-0.8-0.3C172.4-827.3 172.3-827.6 172.2-828"/>
					<path inkscape:connector-curvature="0" fill="#231F20" d="M166.2-826.4h2.2l0.3 1h2l-2.4-6.3h-2.1l-2.4 6.3h2 L166.2-826.4 M166.6-827.8l0.7-2.3l0.7 2.3H166.6"/>
					<path inkscape:connector-curvature="0" fill="#231F20" d="M162.9-831.7h-2l-1.4 4.5l-1.4-4.5h-2l2.3 6.3h2.1 L162.9-831.7"/>
					<path inkscape:connector-curvature="0" fill="#231F20" d="M156.7-831.7h-1.7v1.2h1.7V-831.7 M156.7-829.9h-1.7 v4.5h1.7V-829.9"/>
					<path inkscape:connector-curvature="0" fill="#231F20" d="M150-831.7v6.3h1.6v-0.7c0.2 0.3 0.4 0.5 0.6 0.6 c0.3 0.1 0.5 0.2 0.8 0.2c0.6 0 1.1-0.2 1.4-0.7c0.3-0.5 0.5-1 0.5-1.7c0-0.8-0.2-1.3-0.5-1.7c-0.4-0.4-0.8-0.6-1.4-0.6 c-0.3 0-0.5 0-0.7 0.1c-0.2 0.1-0.4 0.2-0.6 0.4v-2.2H150 M151.8-827.7c0-0.4 0.1-0.6 0.2-0.8c0.2-0.2 0.3-0.3 0.6-0.3 c0.2 0 0.4 0.1 0.5 0.3c0.1 0.2 0.2 0.5 0.2 0.8c0 0.4-0.1 0.6-0.2 0.8c-0.1 0.2-0.3 0.3-0.5 0.3c-0.2 0-0.4-0.1-0.6-0.3 C151.8-827 151.8-827.3 151.8-827.7"/>
					<path inkscape:connector-curvature="0" fill="#231F20" d="M144.9-827.2h3.5c0 0.3-0.1 0.5-0.2 0.6 c-0.2 0.2-0.4 0.3-0.7 0.3c-0.2 0-0.3 0-0.5-0.1c-0.1-0.1-0.2-0.1-0.3-0.3l-1.7 0.2c0.3 0.5 0.6 0.8 0.9 1 c0.4 0.2 0.9 0.3 1.6 0.3c0.6 0 1.1-0.1 1.4-0.3c0.3-0.2 0.6-0.4 0.9-0.8c0.2-0.4 0.3-0.8 0.3-1.3c0-0.7-0.2-1.3-0.7-1.7 c-0.5-0.4-1.1-0.7-1.9-0.7c-0.6 0-1.2 0.1-1.5 0.3s-0.7 0.5-0.9 0.9c-0.2 0.4-0.3 0.9-0.3 1.5V-827.2 M146.7-828.1 c0-0.3 0.1-0.6 0.3-0.7c0.1-0.1 0.3-0.2 0.6-0.2c0.3 0 0.5 0.1 0.7 0.3c0.1 0.1 0.2 0.3 0.2 0.6H146.7"/>
					<path inkscape:connector-curvature="0" fill="#231F20" d="M145.3-827.7c0-0.7-0.2-1.3-0.7-1.7 c-0.5-0.5-1.1-0.7-1.9-0.7c-0.9 0-1.6 0.3-2.1 0.8c-0.4 0.4-0.6 0.9-0.6 1.6c0 0.7 0.2 1.3 0.7 1.7c0.5 0.4 1.1 0.7 1.9 0.7 c0.7 0 1.3-0.2 1.8-0.6C145-826.3 145.3-826.9 145.3-827.7 M143.5-827.7c0 0.4-0.1 0.7-0.2 0.9c-0.2 0.2-0.4 0.3-0.6 0.3 c-0.3 0-0.5-0.1-0.6-0.3c-0.2-0.2-0.2-0.5-0.2-0.9c0-0.4 0.1-0.7 0.2-0.9c0.2-0.2 0.4-0.3 0.6-0.3c0.3 0 0.5 0.1 0.6 0.3 C143.4-828.4 143.5-828.1 143.5-827.7"/>
				</g>
				
					<path inkscape:connector-curvature="0" fill="#FFFFFF" stroke="#231F20" stroke-width="0.4" stroke-miterlimit="22.93" d=" M767.4-353.6c0-7.1 5.7-12.8 12.8-12.8c7.1 0 12.8 5.7 12.8 12.8c0 7.1-5.7 12.8-12.8 12.8C773.1-340.8 767.4-346.5 767.4-353.6 z"/>
				<g transform="matrix(0,-1,-1,0,-16.582343,-257.65045)">
					<path inkscape:connector-curvature="0" fill="#231F20" d="M103.4-818.7h2.2l0.3 1h2l-2.4-6.3h-2.1l-2.4 6.3h2 L103.4-818.7 M103.8-820.1l0.7-2.3l0.7 2.3H103.8"/>
					<path inkscape:connector-curvature="0" fill="#231F20" d="M96.8-817.7h1.6v-0.7c0.2 0.3 0.5 0.5 0.7 0.6 c0.2 0.1 0.5 0.2 0.9 0.2c0.5 0 0.9-0.1 1.1-0.4c0.3-0.3 0.4-0.7 0.4-1.3v-2.9h-1.7v2.5c0 0.3-0.1 0.5-0.2 0.6 c-0.1 0.1-0.3 0.2-0.4 0.2c-0.2 0-0.4-0.1-0.5-0.2c-0.1-0.2-0.2-0.4-0.2-0.9v-2.2h-1.7V-817.7"/>
					<path inkscape:connector-curvature="0" fill="#231F20" d="M91.9-823.9v6.3h1.6v-0.7c0.2 0.3 0.4 0.5 0.6 0.6 c0.3 0.1 0.5 0.2 0.8 0.2c0.6 0 1.1-0.2 1.4-0.7c0.3-0.5 0.5-1 0.5-1.7c0-0.8-0.2-1.3-0.5-1.7c-0.4-0.4-0.8-0.6-1.4-0.6 c-0.3 0-0.5 0-0.7 0.1c-0.2 0.1-0.4 0.2-0.6 0.4v-2.2H91.9 M93.7-820c0-0.4 0.1-0.6 0.2-0.8c0.2-0.2 0.3-0.3 0.6-0.3 c0.2 0 0.4 0.1 0.5 0.3c0.1 0.2 0.2 0.5 0.2 0.8c0 0.4-0.1 0.6-0.2 0.8c-0.1 0.2-0.3 0.3-0.5 0.3c-0.2 0-0.4-0.1-0.6-0.3 C93.7-819.3 93.7-819.6 93.7-820"/>
					<path inkscape:connector-curvature="0" fill="#231F20" d="M91.8-823.9H90v1.2h1.7V-823.9 M91.8-822.2H90v4.5h1.7 V-822.2"/>
					<path inkscape:connector-curvature="0" fill="#231F20" d="M90.1-819.9c0-0.7-0.2-1.3-0.7-1.7 c-0.5-0.5-1.1-0.7-1.9-0.7c-0.9 0-1.6 0.3-2.1 0.8c-0.4 0.4-0.6 0.9-0.6 1.6c0 0.7 0.2 1.3 0.7 1.7c0.5 0.4 1.1 0.7 1.9 0.7 c0.7 0 1.3-0.2 1.8-0.6C89.8-818.6 90.1-819.2 90.1-819.9 M88.4-819.9c0 0.4-0.1 0.7-0.2 0.9c-0.2 0.2-0.4 0.3-0.6 0.3 c-0.3 0-0.5-0.1-0.6-0.3c-0.2-0.2-0.2-0.5-0.2-0.9c0-0.4 0.1-0.7 0.2-0.9c0.2-0.2 0.4-0.3 0.6-0.3c0.3 0 0.5 0.1 0.6 0.3 C88.3-820.6 88.4-820.3 88.4-819.9"/>
				</g>
				<g transform="matrix(0,1,1,0,-16.582343,-257.65045)">
					<path inkscape:connector-curvature="0" fill="#231F20" d="M57.6 530.9v-1.3h-3v2.7c0.6 0.4 1.1 0.7 1.5 0.8 c0.4 0.1 1 0.2 1.6 0.2c0.7 0 1.4-0.1 1.8-0.4c0.5-0.3 0.8-0.6 1.1-1.1c0.3-0.5 0.4-1.1 0.4-1.7c0-0.7-0.1-1.3-0.4-1.8 c-0.3-0.5-0.7-0.9-1.2-1.2c-0.4-0.2-1-0.3-1.7-0.3c-0.7 0-1.2 0.1-1.6 0.2c-0.3 0.1-0.6 0.3-0.9 0.6c-0.2 0.3-0.4 0.6-0.5 1 l1.9 0.3c0.1-0.2 0.2-0.4 0.4-0.5c0.2-0.1 0.4-0.2 0.7-0.2c0.4 0 0.8 0.1 1 0.4c0.3 0.3 0.4 0.8 0.4 1.4c0 0.7-0.1 1.2-0.4 1.5 c-0.3 0.3-0.6 0.4-1.1 0.4c-0.2 0-0.4 0-0.6-0.1s-0.4-0.2-0.7-0.3v-0.6H57.6"/>
					<path inkscape:connector-curvature="0" fill="#231F20" d="M53.9 526.9h-1.7v6.3h1.7V526.9"/>
					<path inkscape:connector-curvature="0" fill="#231F20" d="M47.3 533.2h1.6v-0.7c0.2 0.3 0.5 0.5 0.7 0.6 c0.2 0.1 0.5 0.2 0.9 0.2c0.5 0 0.9-0.1 1.1-0.4c0.3-0.3 0.4-0.7 0.4-1.3v-2.9h-1.7v2.5c0 0.3-0.1 0.5-0.2 0.6 c-0.1 0.1-0.3 0.2-0.4 0.2c-0.2 0-0.4-0.1-0.5-0.2c-0.1-0.2-0.2-0.4-0.2-0.9v-2.2h-1.7V533.2"/>
					<path inkscape:connector-curvature="0" fill="#231F20" d="M42.2 531.4h3.5c0 0.3-0.1 0.5-0.2 0.6 c-0.2 0.2-0.4 0.3-0.7 0.3c-0.2 0-0.3 0-0.5-0.1c-0.1-0.1-0.2-0.1-0.3-0.3l-1.7 0.2c0.3 0.5 0.6 0.8 0.9 1 c0.4 0.2 0.9 0.3 1.6 0.3c0.6 0 1.1-0.1 1.4-0.3c0.3-0.2 0.6-0.4 0.9-0.8c0.2-0.4 0.3-0.8 0.3-1.3c0-0.7-0.2-1.3-0.7-1.7 c-0.5-0.4-1.1-0.7-1.9-0.7c-0.6 0-1.2 0.1-1.5 0.3s-0.7 0.5-0.9 0.9s-0.3 0.9-0.3 1.5V531.4 M43.9 530.5c0-0.3 0.1-0.6 0.3-0.7 c0.1-0.1 0.3-0.2 0.6-0.2c0.3 0 0.5 0.1 0.7 0.3c0.1 0.1 0.2 0.3 0.2 0.6H43.9"/>
					<path inkscape:connector-curvature="0" fill="#231F20" d="M39.3 526.9h-3.6c-0.6 0-1.1 0.1-1.4 0.4 c-0.3 0.3-0.5 0.7-0.5 1.1c0 0.4 0.1 0.7 0.3 1c0.2 0.2 0.4 0.3 0.7 0.4c-0.5 0.1-0.8 0.3-1 0.6c-0.2 0.3-0.3 0.6-0.3 1 c0 0.3 0.1 0.6 0.2 0.9c0.2 0.3 0.4 0.5 0.6 0.6c0.2 0.1 0.4 0.2 0.7 0.2c0.4 0.1 0.7 0.1 0.9 0.1h3.3V526.9 M37.3 529.4h-0.8 c-0.3 0-0.5-0.1-0.6-0.2c-0.1-0.1-0.2-0.3-0.2-0.5c0-0.2 0.1-0.3 0.2-0.4c0.1-0.1 0.3-0.2 0.6-0.2h0.9V529.4 M37.3 531.8h-1 c-0.3 0-0.6-0.1-0.7-0.2c-0.1-0.1-0.2-0.3-0.2-0.5c0-0.2 0.1-0.3 0.2-0.4c0.1-0.1 0.4-0.2 0.7-0.2h1V531.8"/>
				</g>
				<g transform="matrix(0,1,1,0,-16.582343,-257.65045)">
					<path inkscape:connector-curvature="0" fill="#231F20" d="M-356.9 530.9v-1.3h-3v2.7c0.6 0.4 1.1 0.7 1.5 0.8 c0.4 0.1 1 0.2 1.6 0.2c0.7 0 1.4-0.1 1.8-0.4c0.5-0.3 0.8-0.6 1.1-1.1c0.3-0.5 0.4-1.1 0.4-1.7c0-0.7-0.1-1.3-0.4-1.8 c-0.3-0.5-0.7-0.9-1.2-1.2c-0.4-0.2-1-0.3-1.7-0.3c-0.7 0-1.2 0.1-1.6 0.2c-0.3 0.1-0.6 0.3-0.9 0.6c-0.2 0.3-0.4 0.6-0.5 1 l1.9 0.3c0.1-0.2 0.2-0.4 0.4-0.5c0.2-0.1 0.4-0.2 0.7-0.2c0.4 0 0.8 0.1 1 0.4c0.3 0.3 0.4 0.8 0.4 1.4c0 0.7-0.1 1.2-0.4 1.5 c-0.3 0.3-0.6 0.4-1.1 0.4c-0.2 0-0.4 0-0.6-0.1s-0.4-0.2-0.7-0.3v-0.6H-356.9"/>
					<path inkscape:connector-curvature="0" fill="#231F20" d="M-360.5 526.9h-1.7v6.3h1.7V526.9"/>
					<path inkscape:connector-curvature="0" fill="#231F20" d="M-367.1 533.2h1.6v-0.7c0.2 0.3 0.5 0.5 0.7 0.6 c0.2 0.1 0.5 0.2 0.9 0.2c0.5 0 0.9-0.1 1.1-0.4c0.3-0.3 0.4-0.7 0.4-1.3v-2.9h-1.7v2.5c0 0.3-0.1 0.5-0.2 0.6 c-0.1 0.1-0.3 0.2-0.4 0.2c-0.2 0-0.4-0.1-0.5-0.2c-0.1-0.2-0.2-0.4-0.2-0.9v-2.2h-1.7V533.2"/>
					<path inkscape:connector-curvature="0" fill="#231F20" d="M-372.3 531.4h3.5c0 0.3-0.1 0.5-0.2 0.6 c-0.2 0.2-0.4 0.3-0.7 0.3c-0.2 0-0.3 0-0.5-0.1c-0.1-0.1-0.2-0.1-0.3-0.3l-1.7 0.2c0.3 0.5 0.6 0.8 0.9 1 c0.4 0.2 0.9 0.3 1.6 0.3c0.6 0 1.1-0.1 1.4-0.3c0.3-0.2 0.6-0.4 0.9-0.8c0.2-0.4 0.3-0.8 0.3-1.3c0-0.7-0.2-1.3-0.7-1.7 c-0.5-0.4-1.1-0.7-1.9-0.7c-0.6 0-1.2 0.1-1.5 0.3s-0.7 0.5-0.9 0.9s-0.3 0.9-0.3 1.5V531.4 M-370.5 530.5 c0-0.3 0.1-0.6 0.3-0.7c0.1-0.1 0.3-0.2 0.6-0.2c0.3 0 0.5 0.1 0.7 0.3c0.1 0.1 0.2 0.3 0.2 0.6H-370.5"/>
					<path inkscape:connector-curvature="0" fill="#231F20" d="M-379 532.2h2.2l0.3 1h2l-2.4-6.3h-2.1l-2.4 6.3h2 L-379 532.2 M-378.6 530.8l0.7-2.3l0.7 2.3H-378.6"/>
				</g>
				<g transform="matrix(0,-1,-1,0,-16.582343,-257.65045)">
					<path inkscape:connector-curvature="0" fill="#231F20" d="M378.7-768.5v-1.3h-3v2.7c0.6 0.4 1.1 0.7 1.5 0.8 c0.4 0.1 1 0.2 1.6 0.2c0.7 0 1.4-0.1 1.8-0.4c0.5-0.3 0.8-0.6 1.1-1.1c0.3-0.5 0.4-1.1 0.4-1.7c0-0.7-0.1-1.3-0.4-1.8 c-0.3-0.5-0.7-0.9-1.2-1.2c-0.4-0.2-1-0.3-1.7-0.3c-0.7 0-1.2 0.1-1.6 0.2c-0.3 0.1-0.6 0.3-0.9 0.6c-0.2 0.3-0.4 0.6-0.5 1 l1.9 0.3c0.1-0.2 0.2-0.4 0.4-0.5c0.2-0.1 0.4-0.2 0.7-0.2c0.4 0 0.8 0.1 1 0.4c0.3 0.3 0.4 0.8 0.4 1.4c0 0.7-0.1 1.2-0.4 1.5 c-0.3 0.3-0.6 0.4-1.1 0.4c-0.2 0-0.4 0-0.6-0.1s-0.4-0.2-0.7-0.3v-0.6H378.7"/>
					<path inkscape:connector-curvature="0" fill="#231F20" d="M375.1-772.5h-1.7v6.3h1.7V-772.5"/>
					<path inkscape:connector-curvature="0" fill="#231F20" d="M368.5-766.2h1.6v-0.7c0.2 0.3 0.5 0.5 0.7 0.6 c0.2 0.1 0.5 0.2 0.9 0.2c0.5 0 0.9-0.1 1.1-0.4c0.3-0.3 0.4-0.7 0.4-1.3v-2.9h-1.7v2.5c0 0.3-0.1 0.5-0.2 0.6 c-0.1 0.1-0.3 0.2-0.4 0.2c-0.2 0-0.4-0.1-0.5-0.2c-0.1-0.2-0.2-0.4-0.2-0.9v-2.2h-1.7V-766.2"/>
					<path inkscape:connector-curvature="0" fill="#231F20" d="M363.3-768.1h3.5c0 0.3-0.1 0.5-0.2 0.6 c-0.2 0.2-0.4 0.3-0.7 0.3c-0.2 0-0.3 0-0.5-0.1c-0.1-0.1-0.2-0.1-0.3-0.3l-1.7 0.2c0.3 0.5 0.6 0.8 0.9 1 c0.4 0.2 0.9 0.3 1.6 0.3c0.6 0 1.1-0.1 1.4-0.3c0.3-0.2 0.6-0.4 0.9-0.8c0.2-0.4 0.3-0.8 0.3-1.3c0-0.7-0.2-1.3-0.7-1.7 c-0.5-0.4-1.1-0.7-1.9-0.7c-0.6 0-1.2 0.1-1.5 0.3s-0.7 0.5-0.9 0.9s-0.3 0.9-0.3 1.5V-768.1 M365.1-768.9 c0-0.3 0.1-0.6 0.3-0.7c0.1-0.1 0.3-0.2 0.6-0.2c0.3 0 0.5 0.1 0.7 0.3c0.1 0.1 0.2 0.3 0.2 0.6H365.1"/>
					<path inkscape:connector-curvature="0" fill="#231F20" d="M356.3-768.8l-1.7 0.5c0.1 0.5 0.3 0.9 0.5 1.2 c0.2 0.3 0.5 0.6 0.9 0.7c0.4 0.2 0.8 0.2 1.4 0.2c0.7 0 1.2-0.1 1.7-0.3c0.4-0.2 0.8-0.5 1.1-1c0.3-0.5 0.5-1.1 0.5-1.9 c0-1-0.3-1.8-0.8-2.4c-0.6-0.6-1.3-0.8-2.3-0.8c-0.8 0-1.4 0.2-1.9 0.5c-0.5 0.3-0.8 0.8-1 1.5l1.7 0.4 c0.1-0.2 0.1-0.3 0.2-0.4c0.1-0.1 0.2-0.3 0.4-0.3c0.2-0.1 0.3-0.1 0.5-0.1c0.4 0 0.8 0.2 1 0.5c0.2 0.3 0.3 0.7 0.3 1.2 c0 0.7-0.1 1.2-0.3 1.4c-0.2 0.3-0.5 0.4-0.9 0.4c-0.4 0-0.6-0.1-0.8-0.3C356.5-768.1 356.4-768.4 356.3-768.8"/>
				</g>
				<g transform="matrix(0,-1,-1,0,-16.582343,-257.65045)">
					<path inkscape:connector-curvature="0" fill="#231F20" d="M-36.2-768.6v-1.3h-3v2.7c0.6 0.4 1.1 0.7 1.5 0.8 c0.4 0.1 1 0.2 1.6 0.2c0.7 0 1.4-0.1 1.8-0.4c0.5-0.3 0.8-0.6 1.1-1.1c0.3-0.5 0.4-1.1 0.4-1.7c0-0.7-0.1-1.3-0.4-1.8 c-0.3-0.5-0.7-0.9-1.2-1.2c-0.4-0.2-1-0.3-1.7-0.3c-0.7 0-1.2 0.1-1.6 0.2c-0.3 0.1-0.6 0.3-0.9 0.6c-0.2 0.3-0.4 0.6-0.5 1 l1.9 0.3c0.1-0.2 0.2-0.4 0.4-0.5c0.2-0.1 0.4-0.2 0.7-0.2c0.4 0 0.8 0.1 1 0.4c0.3 0.3 0.4 0.8 0.4 1.4c0 0.7-0.1 1.2-0.4 1.5 c-0.3 0.3-0.6 0.4-1.1 0.4c-0.2 0-0.4 0-0.6-0.1s-0.4-0.2-0.7-0.3v-0.6H-36.2"/>
					<path inkscape:connector-curvature="0" fill="#231F20" d="M-39.8-772.6h-1.7v6.3h1.7V-772.6"/>
					<path inkscape:connector-curvature="0" fill="#231F20" d="M-46.5-766.3h1.6v-0.7c0.2 0.3 0.5 0.5 0.7 0.6 c0.2 0.1 0.5 0.2 0.9 0.2c0.5 0 0.9-0.1 1.1-0.4c0.3-0.3 0.4-0.7 0.4-1.3v-2.9h-1.7v2.5c0 0.3-0.1 0.5-0.2 0.6 c-0.1 0.1-0.3 0.2-0.4 0.2c-0.2 0-0.4-0.1-0.5-0.2c-0.1-0.2-0.2-0.4-0.2-0.9v-2.2h-1.7V-766.3"/>
					<path inkscape:connector-curvature="0" fill="#231F20" d="M-51.6-768.1h3.5c0 0.3-0.1 0.5-0.2 0.6 c-0.2 0.2-0.4 0.3-0.7 0.3c-0.2 0-0.3 0-0.5-0.1c-0.1-0.1-0.2-0.1-0.3-0.3l-1.7 0.2c0.3 0.5 0.6 0.8 0.9 1 c0.4 0.2 0.9 0.3 1.6 0.3c0.6 0 1.1-0.1 1.4-0.3c0.3-0.2 0.6-0.4 0.9-0.8c0.2-0.4 0.3-0.8 0.3-1.3c0-0.7-0.2-1.3-0.7-1.7 c-0.5-0.4-1.1-0.7-1.9-0.7c-0.6 0-1.2 0.1-1.5 0.3s-0.7 0.5-0.9 0.9s-0.3 0.9-0.3 1.5V-768.1 M-49.8-769c0-0.3 0.1-0.6 0.3-0.7 c0.1-0.1 0.3-0.2 0.6-0.2c0.3 0 0.5 0.1 0.7 0.3c0.1 0.1 0.2 0.3 0.2 0.6H-49.8"/>
					<path inkscape:connector-curvature="0" fill="#231F20" d="M-54.5-772.6h-2.9c-0.6 0-1 0.1-1.4 0.2 c-0.4 0.2-0.6 0.4-0.9 0.7c-0.2 0.3-0.4 0.6-0.5 1c-0.1 0.4-0.2 0.8-0.2 1.2c0 0.7 0.1 1.2 0.2 1.6c0.2 0.4 0.4 0.7 0.6 0.9 c0.3 0.2 0.6 0.4 0.9 0.5c0.4 0.1 0.8 0.2 1.2 0.2h2.9V-772.6 M-56.4-771.2v3.4h-0.5c-0.4 0-0.7 0-0.9-0.1 c-0.2-0.1-0.3-0.2-0.4-0.5c-0.1-0.2-0.1-0.6-0.1-1.1c0-0.7 0.1-1.1 0.3-1.4c0.2-0.2 0.6-0.4 1.1-0.4H-56.4"/>
				</g>
				<g transform="matrix(0,1,1,0,-16.582343,-257.65045)">
					<path inkscape:connector-curvature="0" fill="#231F20" d="M-282.5 502.8v-1.3h-3v2.7c0.6 0.4 1.1 0.7 1.5 0.8 c0.4 0.1 1 0.2 1.6 0.2c0.7 0 1.4-0.1 1.8-0.4c0.5-0.3 0.8-0.6 1.1-1.1c0.3-0.5 0.4-1.1 0.4-1.7c0-0.7-0.1-1.3-0.4-1.8 c-0.3-0.5-0.7-0.9-1.2-1.2c-0.4-0.2-1-0.3-1.7-0.3c-0.7 0-1.2 0.1-1.6 0.2c-0.3 0.1-0.6 0.3-0.9 0.6c-0.2 0.3-0.4 0.6-0.5 1 l1.9 0.3c0.1-0.2 0.2-0.4 0.4-0.5c0.2-0.1 0.4-0.2 0.7-0.2c0.4 0 0.8 0.1 1 0.4c0.3 0.3 0.4 0.8 0.4 1.4c0 0.7-0.1 1.2-0.4 1.5 c-0.3 0.3-0.6 0.4-1.1 0.4c-0.2 0-0.4 0-0.6-0.1c-0.2-0.1-0.4-0.2-0.7-0.3v-0.6H-282.5"/>
					<path inkscape:connector-curvature="0" fill="#231F20" d="M-286.1 498.8h-1.7v6.3h1.7V498.8"/>
					<path inkscape:connector-curvature="0" fill="#231F20" d="M-292.8 505.1h1.6v-0.7c0.2 0.3 0.5 0.5 0.7 0.6 c0.2 0.1 0.5 0.2 0.9 0.2c0.5 0 0.9-0.1 1.1-0.4c0.3-0.3 0.4-0.7 0.4-1.3v-2.9h-1.7v2.5c0 0.3-0.1 0.5-0.2 0.6 c-0.1 0.1-0.3 0.2-0.4 0.2c-0.2 0-0.4-0.1-0.5-0.2c-0.1-0.2-0.2-0.4-0.2-0.9v-2.2h-1.7V505.1"/>
					<path inkscape:connector-curvature="0" fill="#231F20" d="M-297.9 503.2h3.5c0 0.3-0.1 0.5-0.2 0.6 c-0.2 0.2-0.4 0.3-0.7 0.3c-0.2 0-0.3 0-0.5-0.1c-0.1-0.1-0.2-0.1-0.3-0.3l-1.7 0.2c0.3 0.5 0.6 0.8 0.9 1 c0.4 0.2 0.9 0.3 1.6 0.3c0.6 0 1.1-0.1 1.4-0.3c0.3-0.2 0.6-0.4 0.9-0.8c0.2-0.4 0.3-0.8 0.3-1.3c0-0.7-0.2-1.3-0.7-1.7 c-0.5-0.4-1.1-0.7-1.9-0.7c-0.6 0-1.2 0.1-1.5 0.3s-0.7 0.5-0.9 0.9c-0.2 0.4-0.3 0.9-0.3 1.5V503.2 M-296.1 502.4 c0-0.3 0.1-0.6 0.3-0.7c0.1-0.1 0.3-0.2 0.6-0.2c0.3 0 0.5 0.1 0.7 0.3c0.1 0.1 0.2 0.3 0.2 0.6H-296.1"/>
					<path inkscape:connector-curvature="0" fill="#231F20" d="M-304.6 504h2.2l0.3 1h2l-2.4-6.3h-2.1l-2.4 6.3h2 L-304.6 504 M-304.2 502.7l0.7-2.3l0.7 2.3H-304.2"/>
				</g>
				<g transform="matrix(0,-1,-1,0,-16.582343,-257.65045)">
					<path inkscape:connector-curvature="0" fill="#231F20" d="M305.8-796.6v-1.3h-3v2.7c0.6 0.4 1.1 0.7 1.5 0.8 c0.4 0.1 1 0.2 1.6 0.2c0.7 0 1.4-0.1 1.8-0.4c0.5-0.3 0.8-0.6 1.1-1.1c0.3-0.5 0.4-1.1 0.4-1.7c0-0.7-0.1-1.3-0.4-1.8 c-0.3-0.5-0.7-0.9-1.2-1.2c-0.4-0.2-1-0.3-1.7-0.3c-0.7 0-1.2 0.1-1.6 0.2c-0.3 0.1-0.6 0.3-0.9 0.6c-0.2 0.3-0.4 0.6-0.5 1 l1.9 0.3c0.1-0.2 0.2-0.4 0.4-0.5c0.2-0.1 0.4-0.2 0.7-0.2c0.4 0 0.8 0.1 1 0.4c0.3 0.3 0.4 0.8 0.4 1.4c0 0.7-0.1 1.2-0.4 1.5 c-0.3 0.3-0.6 0.4-1.1 0.4c-0.2 0-0.4 0-0.6-0.1c-0.2-0.1-0.4-0.2-0.7-0.3v-0.6H305.8"/>
					<path inkscape:connector-curvature="0" fill="#231F20" d="M302.2-800.6h-1.7v6.3h1.7V-800.6"/>
					<path inkscape:connector-curvature="0" fill="#231F20" d="M295.6-794.3h1.6v-0.7c0.2 0.3 0.5 0.5 0.7 0.6 c0.2 0.1 0.5 0.2 0.9 0.2c0.5 0 0.9-0.1 1.1-0.4c0.3-0.3 0.4-0.7 0.4-1.3v-2.9h-1.7v2.5c0 0.3-0.1 0.5-0.2 0.6 c-0.1 0.1-0.3 0.2-0.4 0.2c-0.2 0-0.4-0.1-0.5-0.2c-0.1-0.2-0.2-0.4-0.2-0.9v-2.2h-1.7V-794.3"/>
					<path inkscape:connector-curvature="0" fill="#231F20" d="M290.4-796.1h3.5c0 0.3-0.1 0.5-0.2 0.6 c-0.2 0.2-0.4 0.3-0.7 0.3c-0.2 0-0.3 0-0.5-0.1c-0.1-0.1-0.2-0.1-0.3-0.3l-1.7 0.2c0.3 0.5 0.6 0.8 0.9 1 c0.4 0.2 0.9 0.3 1.6 0.3c0.6 0 1.1-0.1 1.4-0.3c0.3-0.2 0.6-0.4 0.9-0.8c0.2-0.4 0.3-0.8 0.3-1.3c0-0.7-0.2-1.3-0.7-1.7 c-0.5-0.4-1.1-0.7-1.9-0.7c-0.6 0-1.2 0.1-1.5 0.3s-0.7 0.5-0.9 0.9c-0.2 0.4-0.3 0.9-0.3 1.5V-796.1 M292.2-797 c0-0.3 0.1-0.6 0.3-0.7c0.1-0.1 0.3-0.2 0.6-0.2c0.3 0 0.5 0.1 0.7 0.3c0.1 0.1 0.2 0.3 0.2 0.6H292.2"/>
					<path inkscape:connector-curvature="0" fill="#231F20" d="M283.4-796.9l-1.7 0.5c0.1 0.5 0.3 0.9 0.5 1.2 c0.2 0.3 0.5 0.6 0.9 0.7c0.4 0.2 0.8 0.2 1.4 0.2c0.7 0 1.2-0.1 1.7-0.3c0.4-0.2 0.8-0.5 1.1-1c0.3-0.5 0.5-1.1 0.5-1.9 c0-1-0.3-1.8-0.8-2.4c-0.6-0.6-1.3-0.8-2.3-0.8c-0.8 0-1.4 0.2-1.9 0.5c-0.5 0.3-0.8 0.8-1 1.5l1.7 0.4 c0.1-0.2 0.1-0.3 0.2-0.4c0.1-0.1 0.2-0.3 0.4-0.3c0.2-0.1 0.3-0.1 0.5-0.1c0.4 0 0.8 0.2 1 0.5c0.2 0.3 0.3 0.7 0.3 1.2 c0 0.7-0.1 1.2-0.3 1.4c-0.2 0.3-0.5 0.4-0.9 0.4c-0.4 0-0.6-0.1-0.8-0.3C283.6-796.2 283.5-796.5 283.4-796.9"/>
				</g>
				<g transform="matrix(0,-1,-1,0,-16.582343,-257.65045)">
					<path inkscape:connector-curvature="0" fill="#231F20" d="M37.7-796.6v-1.3h-3v2.7c0.6 0.4 1.1 0.7 1.5 0.8 c0.4 0.1 1 0.2 1.6 0.2c0.7 0 1.4-0.1 1.8-0.4c0.5-0.3 0.8-0.6 1.1-1.1c0.3-0.5 0.4-1.1 0.4-1.7c0-0.7-0.1-1.3-0.4-1.8 c-0.3-0.5-0.7-0.9-1.2-1.2c-0.4-0.2-1-0.3-1.7-0.3c-0.7 0-1.2 0.1-1.6 0.2c-0.3 0.1-0.6 0.3-0.9 0.6c-0.2 0.3-0.4 0.6-0.5 1 l1.9 0.3c0.1-0.2 0.2-0.4 0.4-0.5c0.2-0.1 0.4-0.2 0.7-0.2c0.4 0 0.8 0.1 1 0.4c0.3 0.3 0.4 0.8 0.4 1.4c0 0.7-0.1 1.2-0.4 1.5 c-0.3 0.3-0.6 0.4-1.1 0.4c-0.2 0-0.4 0-0.6-0.1c-0.2-0.1-0.4-0.2-0.7-0.3v-0.6H37.7"/>
					<path inkscape:connector-curvature="0" fill="#231F20" d="M34.1-800.6h-1.7v6.3h1.7V-800.6"/>
					<path inkscape:connector-curvature="0" fill="#231F20" d="M27.5-794.3h1.6v-0.7c0.2 0.3 0.5 0.5 0.7 0.6 c0.2 0.1 0.5 0.2 0.9 0.2c0.5 0 0.9-0.1 1.1-0.4c0.3-0.3 0.4-0.7 0.4-1.3v-2.9h-1.7v2.5c0 0.3-0.1 0.5-0.2 0.6 c-0.1 0.1-0.3 0.2-0.4 0.2c-0.2 0-0.4-0.1-0.5-0.2c-0.1-0.2-0.2-0.4-0.2-0.9v-2.2h-1.7V-794.3"/>
					<path inkscape:connector-curvature="0" fill="#231F20" d="M22.4-796.1h3.5c0 0.3-0.1 0.5-0.2 0.6 c-0.2 0.2-0.4 0.3-0.7 0.3c-0.2 0-0.3 0-0.5-0.1c-0.1-0.1-0.2-0.1-0.3-0.3l-1.7 0.2c0.3 0.5 0.6 0.8 0.9 1 c0.4 0.2 0.9 0.3 1.6 0.3c0.6 0 1.1-0.1 1.4-0.3c0.3-0.2 0.6-0.4 0.9-0.8c0.2-0.4 0.3-0.8 0.3-1.3c0-0.7-0.2-1.3-0.7-1.7 c-0.5-0.4-1.1-0.7-1.9-0.7c-0.6 0-1.2 0.1-1.5 0.3s-0.7 0.5-0.9 0.9c-0.2 0.4-0.3 0.9-0.3 1.5V-796.1 M24.1-797 c0-0.3 0.1-0.6 0.3-0.7c0.1-0.1 0.3-0.2 0.6-0.2c0.3 0 0.5 0.1 0.7 0.3c0.1 0.1 0.2 0.3 0.2 0.6H24.1"/>
					<path inkscape:connector-curvature="0" fill="#231F20" d="M19.5-800.6h-2.9c-0.6 0-1 0.1-1.4 0.2 c-0.4 0.2-0.6 0.4-0.9 0.7c-0.2 0.3-0.4 0.6-0.5 1c-0.1 0.4-0.2 0.8-0.2 1.2c0 0.7 0.1 1.2 0.2 1.6c0.2 0.4 0.4 0.7 0.6 0.9 c0.3 0.2 0.6 0.4 0.9 0.5c0.4 0.1 0.8 0.2 1.2 0.2h2.9V-800.6 M17.5-799.1v3.4H17c-0.4 0-0.7 0-0.9-0.1 c-0.2-0.1-0.3-0.2-0.4-0.5c-0.1-0.2-0.1-0.6-0.1-1.1c0-0.7 0.1-1.1 0.3-1.4c0.2-0.2 0.6-0.4 1.1-0.4H17.5"/>
				</g>
				<g transform="matrix(0,1,1,0,-16.582343,-257.65045)">
					<path inkscape:connector-curvature="0" fill="#231F20" d="M-20.9 502.8v-1.3h-3v2.7c0.6 0.4 1.1 0.7 1.5 0.8 c0.4 0.1 1 0.2 1.6 0.2c0.7 0 1.4-0.1 1.8-0.4c0.5-0.3 0.8-0.6 1.1-1.1c0.3-0.5 0.4-1.1 0.4-1.7c0-0.7-0.1-1.3-0.4-1.8 c-0.3-0.5-0.7-0.9-1.2-1.2c-0.4-0.2-1-0.3-1.7-0.3c-0.7 0-1.2 0.1-1.6 0.2c-0.3 0.1-0.6 0.3-0.9 0.6c-0.2 0.3-0.4 0.6-0.5 1 l1.9 0.3c0.1-0.2 0.2-0.4 0.4-0.5c0.2-0.1 0.4-0.2 0.7-0.2c0.4 0 0.8 0.1 1 0.4c0.3 0.3 0.4 0.8 0.4 1.4c0 0.7-0.1 1.2-0.4 1.5 c-0.3 0.3-0.6 0.4-1.1 0.4c-0.2 0-0.4 0-0.6-0.1c-0.2-0.1-0.4-0.2-0.7-0.3v-0.6H-20.9"/>
					<path inkscape:connector-curvature="0" fill="#231F20" d="M-24.5 498.8h-1.7v6.3h1.7V498.8"/>
					<path inkscape:connector-curvature="0" fill="#231F20" d="M-31.2 505.1h1.6v-0.7c0.2 0.3 0.5 0.5 0.7 0.6 c0.2 0.1 0.5 0.2 0.9 0.2c0.5 0 0.9-0.1 1.1-0.4c0.3-0.3 0.4-0.7 0.4-1.3v-2.9h-1.7v2.5c0 0.3-0.1 0.5-0.2 0.6 c-0.1 0.1-0.3 0.2-0.4 0.2c-0.2 0-0.4-0.1-0.5-0.2c-0.1-0.2-0.2-0.4-0.2-0.9v-2.2h-1.7V505.1"/>
					<path inkscape:connector-curvature="0" fill="#231F20" d="M-36.3 503.2h3.5c0 0.3-0.1 0.5-0.2 0.6 c-0.2 0.2-0.4 0.3-0.7 0.3c-0.2 0-0.3 0-0.5-0.1c-0.1-0.1-0.2-0.1-0.3-0.3l-1.7 0.2c0.3 0.5 0.6 0.8 0.9 1 c0.4 0.2 0.9 0.3 1.6 0.3c0.6 0 1.1-0.1 1.4-0.3c0.3-0.2 0.6-0.4 0.9-0.8c0.2-0.4 0.3-0.8 0.3-1.3c0-0.7-0.2-1.3-0.7-1.7 c-0.5-0.4-1.1-0.7-1.9-0.7c-0.6 0-1.2 0.1-1.5 0.3s-0.7 0.5-0.9 0.9c-0.2 0.4-0.3 0.9-0.3 1.5V503.2 M-34.5 502.4 c0-0.3 0.1-0.6 0.3-0.7c0.1-0.1 0.3-0.2 0.6-0.2c0.3 0 0.5 0.1 0.7 0.3c0.1 0.1 0.2 0.3 0.2 0.6H-34.5"/>
					<path inkscape:connector-curvature="0" fill="#231F20" d="M-39.2 498.8h-3.6c-0.6 0-1.1 0.1-1.4 0.4 c-0.3 0.3-0.5 0.7-0.5 1.1c0 0.4 0.1 0.7 0.3 1c0.2 0.2 0.4 0.3 0.7 0.4c-0.5 0.1-0.8 0.3-1 0.6c-0.2 0.3-0.3 0.6-0.3 1 c0 0.3 0.1 0.6 0.2 0.9c0.2 0.3 0.4 0.5 0.6 0.6c0.2 0.1 0.4 0.2 0.7 0.2c0.4 0.1 0.7 0.1 0.9 0.1h3.3V498.8 M-41.1 501.3H-42 c-0.3 0-0.5-0.1-0.6-0.2c-0.1-0.1-0.2-0.3-0.2-0.5c0-0.2 0.1-0.3 0.2-0.4c0.1-0.1 0.3-0.2 0.6-0.2h0.9V501.3 M-41.1 503.7h-1 c-0.3 0-0.6-0.1-0.7-0.2c-0.1-0.1-0.2-0.3-0.2-0.5c0-0.2 0.1-0.3 0.2-0.4c0.1-0.1 0.4-0.2 0.7-0.2h1V503.7"/>
				</g>
				<g transform="matrix(1,0,0,-1,-16.582343,-361.65045)" opacity="0.75">
					<path inkscape:connector-curvature="0" d="M591.6-83.7H588v12.6h3.6V-83.7 M591.9-67.4c0-0.7-0.2-1.2-0.6-1.6 c-0.4-0.4-0.9-0.6-1.5-0.6c-0.6 0-1.1 0.2-1.5 0.6c-0.4 0.4-0.6 0.9-0.6 1.6s0.2 1.2 0.6 1.5c0.4 0.4 0.9 0.6 1.5 0.6 c0.6 0 1.1-0.2 1.5-0.6C591.7-66.3 591.9-66.8 591.9-67.4"/>
					<path inkscape:connector-curvature="0" d="M594.9-71.5c0.6 0.2 1.4 0.3 2.4 0.5c1 0.2 2 0.2 3 0.2 c1.1 0 2-0.1 2.7-0.4c0.7-0.3 1.3-0.7 1.7-1.2c0.4-0.5 0.7-1.1 0.9-1.8c0.2-0.7 0.3-1.5 0.3-2.4v-7.1h-3.6v6.7 c0 1.2-0.2 2-0.5 2.4c-0.3 0.5-0.9 0.7-1.7 0.7c-0.3 0-0.5 0-0.8 0c-0.3 0-0.5 0-0.8-0.1v-9.7h-3.6L594.9-71.5"/>
					<path inkscape:connector-curvature="0" d="M612.7-81.1c0.7 0 1.1 0.1 1.4 0.2c0.3 0.1 0.4 0.4 0.4 0.7 c0 0.3-0.2 0.5-0.5 0.7c-0.4 0.2-0.9 0.5-1.6 0.7c-0.6 0.2-1.1 0.4-1.5 0.6c-0.4 0.2-0.8 0.5-1.2 0.8c-0.3 0.3-0.6 0.7-0.7 1.1 c-0.2 0.4-0.3 1-0.3 1.6c0 1.2 0.4 2.1 1.3 2.8s2.1 1 3.6 1c0.8 0 1.5-0.1 2.2-0.2c0.7-0.1 1.3-0.3 1.7-0.4l-0.6-2.8 c-0.4 0.1-0.9 0.3-1.4 0.4c-0.5 0.1-1 0.2-1.6 0.2c-1.1 0-1.7-0.3-1.7-0.9c0-0.1 0-0.3 0.1-0.4c0-0.1 0.1-0.2 0.3-0.3 c0.1-0.1 0.3-0.2 0.6-0.3c0.3-0.1 0.6-0.2 1-0.4c0.8-0.3 1.4-0.6 1.9-0.9c0.5-0.3 0.9-0.6 1.2-0.9c0.3-0.3 0.5-0.7 0.6-1.1 c0.1-0.4 0.2-0.9 0.2-1.4c0-1.2-0.5-2.2-1.4-2.8c-0.9-0.6-2.2-1-4-1c-1.1 0-2.1 0.1-2.8 0.3c-0.7 0.2-1.2 0.4-1.5 0.5l0.6 2.9 c0.6-0.2 1.2-0.4 1.9-0.6C611.4-81.1 612.1-81.1 612.7-81.1"/>
					<path inkscape:connector-curvature="0" d="M624.3-83.7h-3.6v12.6h3.6V-83.7 M624.6-67.4c0-0.7-0.2-1.2-0.6-1.6 c-0.4-0.4-0.9-0.6-1.5-0.6s-1.1 0.2-1.5 0.6c-0.4 0.4-0.6 0.9-0.6 1.6s0.2 1.2 0.6 1.5c0.4 0.4 0.9 0.6 1.5 0.6 s1.1-0.2 1.5-0.6C624.4-66.3 624.6-66.8 624.6-67.4"/>
					<path inkscape:connector-curvature="0" d="M630.7-77.3c0-1.1 0.2-2 0.7-2.7s1.2-1 2.2-1c0.3 0 0.6 0 0.9 0 c0.3 0 0.5 0.1 0.7 0.1v6.5c-0.2 0.1-0.5 0.3-0.9 0.4c-0.4 0.1-0.7 0.1-1.1 0.1C631.5-73.9 630.7-75 630.7-77.3 M638.8-83.3 c-0.3-0.1-0.7-0.2-1.1-0.3c-0.4-0.1-0.9-0.2-1.3-0.2c-0.4-0.1-0.9-0.1-1.4-0.1c-0.5 0-0.9-0.1-1.3-0.1c-1 0-2 0.2-2.8 0.5 c-0.8 0.3-1.5 0.7-2.1 1.3c-0.6 0.6-1 1.3-1.3 2.1c-0.3 0.8-0.4 1.7-0.4 2.7c0 1 0.1 1.9 0.4 2.8c0.3 0.8 0.6 1.5 1.1 2.1 c0.5 0.6 1.1 1 1.8 1.3c0.7 0.3 1.5 0.5 2.4 0.5c0.5 0 0.9 0 1.3-0.1c0.4-0.1 0.8-0.2 1.2-0.4v5.7l3.6 0.6V-83.3"/>
					<path inkscape:connector-curvature="0" d="M641.5-77.5c0 1.1 0.2 2.1 0.5 2.9c0.4 0.8 0.8 1.6 1.4 2.1 s1.2 1 1.9 1.3c0.7 0.3 1.5 0.4 2.3 0.4c1.8 0 3.2-0.6 4.2-1.7c1-1.1 1.6-2.7 1.6-4.8c0-0.2 0-0.4 0-0.7c0-0.2 0-0.5 0-0.6 h-8.1c0.1-0.7 0.4-1.3 1-1.8s1.4-0.6 2.4-0.6c0.7 0 1.3 0.1 1.9 0.2c0.6 0.1 1.2 0.3 1.6 0.5l0.5-2.9c-0.2-0.1-0.4-0.2-0.8-0.3 s-0.7-0.2-1.1-0.2c-0.4-0.1-0.8-0.1-1.2-0.2c-0.4 0-0.9-0.1-1.3-0.1c-1.1 0-2.1 0.2-3 0.5c-0.8 0.3-1.5 0.8-2.1 1.4 c-0.5 0.6-1 1.3-1.2 2.1C641.7-79.3 641.5-78.4 641.5-77.5 M649.9-76.1c0 0.3-0.1 0.6-0.2 0.9c-0.1 0.3-0.2 0.5-0.4 0.8 c-0.2 0.2-0.4 0.4-0.7 0.6c-0.3 0.1-0.6 0.2-1 0.2c-0.4 0-0.7-0.1-1-0.2c-0.3-0.1-0.5-0.3-0.7-0.5c-0.2-0.2-0.3-0.5-0.5-0.8 c-0.1-0.3-0.2-0.6-0.2-0.9L649.9-76.1"/>
					<path inkscape:connector-curvature="0" d="M670-77.3c0 2.3-0.8 3.5-2.5 3.5c-0.4 0-0.7 0-1.1-0.1 c-0.4-0.1-0.6-0.2-0.9-0.4v-6.5c0.2 0 0.4-0.1 0.7-0.1c0.3 0 0.6 0 0.9 0c1 0 1.7 0.3 2.2 1C669.7-79.3 670-78.4 670-77.3 M673.6-77.4c0-1-0.2-1.9-0.5-2.7c-0.3-0.8-0.7-1.5-1.3-2.1s-1.2-1-2.1-1.3c-0.8-0.3-1.7-0.5-2.8-0.5c-0.4 0-0.9 0-1.4 0.1 c-0.5 0-0.9 0.1-1.4 0.1c-0.4 0.1-0.9 0.1-1.3 0.2c-0.4 0.1-0.8 0.2-1.1 0.3v17.6l3.6 0.6v-6.3c0.4 0.2 0.8 0.3 1.2 0.4 c0.4 0.1 0.9 0.1 1.4 0.1c0.9 0 1.7-0.2 2.4-0.5c0.7-0.3 1.3-0.7 1.7-1.3c0.5-0.6 0.8-1.3 1.1-2.1 C673.5-75.5 673.6-76.4 673.6-77.4"/>
					<path inkscape:connector-curvature="0" d="M681.2-81.2c0.4 0 0.7 0 1 0c0.3 0 0.6 0 0.8 0.1v2.7 c-0.1 0-0.4 0.1-0.6 0.1s-0.6 0-0.8 0c-0.3 0-0.7 0-1-0.1c-0.3 0-0.5-0.1-0.8-0.2s-0.4-0.3-0.5-0.5s-0.2-0.4-0.2-0.7 c0-0.6 0.2-1 0.6-1.2C680-81.1 680.6-81.2 681.2-81.2 M680.9-70.8c1.1 0 1.9-0.1 2.6-0.4c0.7-0.2 1.3-0.6 1.7-1 c0.4-0.4 0.7-1 0.9-1.6c0.2-0.6 0.3-1.4 0.3-2.1v-7.4c-0.5-0.1-1.2-0.2-2.1-0.4c-0.9-0.2-2-0.2-3.3-0.2c-0.8 0-1.6 0.1-2.2 0.2 c-0.7 0.1-1.2 0.4-1.7 0.7c-0.5 0.3-0.8 0.8-1.1 1.3c-0.3 0.5-0.4 1.2-0.4 1.9c0 0.7 0.1 1.4 0.4 1.9c0.3 0.5 0.7 0.9 1.2 1.2 c0.5 0.3 1.1 0.5 1.7 0.6c0.6 0.1 1.3 0.2 2 0.2c0.5 0 0.9 0 1.2-0.1c0.4 0 0.7-0.1 0.9-0.1v0.3c0 0.6-0.2 1.1-0.6 1.5 c-0.4 0.4-1 0.6-1.9 0.6c-0.6 0-1.2 0-1.8-0.1c-0.6-0.1-1.1-0.2-1.5-0.4l-0.5 2.9c0.2 0.1 0.5 0.1 0.8 0.2 c0.3 0.1 0.7 0.1 1 0.2c0.4 0.1 0.8 0.1 1.2 0.1C680.1-70.8 680.5-70.8 680.9-70.8"/>
					<path inkscape:connector-curvature="0" d="M693.3-81.1c0.7 0 1.1 0.1 1.4 0.2s0.4 0.4 0.4 0.7 c0 0.3-0.2 0.5-0.5 0.7c-0.4 0.2-0.9 0.5-1.6 0.7c-0.6 0.2-1.1 0.4-1.5 0.6c-0.4 0.2-0.8 0.5-1.2 0.8c-0.3 0.3-0.6 0.7-0.7 1.1 c-0.2 0.4-0.3 1-0.3 1.6c0 1.2 0.4 2.1 1.3 2.8c0.9 0.7 2.1 1 3.6 1c0.8 0 1.5-0.1 2.2-0.2c0.7-0.1 1.3-0.3 1.7-0.4l-0.6-2.8 c-0.4 0.1-0.9 0.3-1.4 0.4c-0.5 0.1-1 0.2-1.6 0.2c-1.1 0-1.7-0.3-1.7-0.9c0-0.1 0-0.3 0.1-0.4c0-0.1 0.1-0.2 0.3-0.3 c0.1-0.1 0.3-0.2 0.6-0.3c0.3-0.1 0.6-0.2 1-0.4c0.8-0.3 1.4-0.6 1.9-0.9c0.5-0.3 0.9-0.6 1.2-0.9c0.3-0.3 0.5-0.7 0.6-1.1 c0.1-0.4 0.2-0.9 0.2-1.4c0-1.2-0.5-2.2-1.4-2.8c-0.9-0.6-2.2-1-4-1c-1.1 0-2.1 0.1-2.8 0.3c-0.7 0.2-1.2 0.4-1.5 0.5l0.6 2.9 c0.6-0.2 1.2-0.4 1.9-0.6C692-81.1 692.7-81.1 693.3-81.1"/>
					<path inkscape:connector-curvature="0" d="M700.7-77.5c0 1.1 0.2 2.1 0.5 2.9c0.4 0.8 0.8 1.6 1.4 2.1 s1.2 1 1.9 1.3c0.7 0.3 1.5 0.4 2.3 0.4c1.8 0 3.2-0.6 4.2-1.7c1-1.1 1.6-2.7 1.6-4.8c0-0.2 0-0.4 0-0.7c0-0.2 0-0.5 0-0.6 h-8.1c0.1-0.7 0.4-1.3 1-1.8c0.6-0.4 1.4-0.6 2.4-0.6c0.7 0 1.3 0.1 1.9 0.2c0.6 0.1 1.2 0.3 1.6 0.5l0.5-2.9 c-0.2-0.1-0.4-0.2-0.8-0.3s-0.7-0.2-1.1-0.2c-0.4-0.1-0.8-0.1-1.2-0.2c-0.4 0-0.9-0.1-1.3-0.1c-1.1 0-2.1 0.2-3 0.5 c-0.8 0.3-1.5 0.8-2.1 1.4c-0.5 0.6-1 1.3-1.2 2.1C700.8-79.3 700.7-78.4 700.7-77.5 M709.1-76.1c0 0.3-0.1 0.6-0.2 0.9 c-0.1 0.3-0.2 0.5-0.4 0.8c-0.2 0.2-0.4 0.4-0.7 0.6c-0.3 0.1-0.6 0.2-1 0.2c-0.4 0-0.7-0.1-1-0.2c-0.3-0.1-0.5-0.3-0.7-0.5 c-0.2-0.2-0.3-0.5-0.5-0.8c-0.1-0.3-0.2-0.6-0.2-0.9L709.1-76.1"/>
				</g>
				<path inkscape:connector-curvature="0" fill="#FFFFFF" stroke="#000000" stroke-width="0.4" d="M589.5-236.1 h-43.4v45h43.4V-236.1z"/>
				<g transform="matrix(-1,0,0,-1,-16.582343,-257.65045)">
					<path inkscape:connector-curvature="0" fill="#1A1A1A" d="M-802 97h4.5v4.9h1.9V97h4.5v-1.9h-4.5v-5h-1.9v5h-4.5 V97"/>
				</g>
				<g transform="matrix(-1,0,0,-1,-16.582343,-257.65045)">
					<path inkscape:connector-curvature="0" fill="#1A1A1A" d="M-807 162.5h6.2v6.7h2.6v-6.7h6.2v-2.6h-6.2v-6.8h-2.6 v6.8h-6.2V162.5"/>
				</g>
				<g transform="matrix(0,1,1,0,-16.582343,-257.65045)">
					<path inkscape:connector-curvature="0" fill="#231F20" d="M-154.1 441.8v-1.3h-3v2.7c0.6 0.4 1.1 0.7 1.5 0.8 c0.4 0.1 1 0.2 1.6 0.2c0.7 0 1.4-0.1 1.8-0.4c0.5-0.3 0.8-0.6 1.1-1.1c0.3-0.5 0.4-1.1 0.4-1.7c0-0.7-0.1-1.3-0.4-1.8 c-0.3-0.5-0.7-0.9-1.2-1.2c-0.4-0.2-1-0.3-1.7-0.3c-0.7 0-1.2 0.1-1.6 0.2c-0.3 0.1-0.6 0.3-0.9 0.6c-0.2 0.3-0.4 0.6-0.5 1 l1.9 0.3c0.1-0.2 0.2-0.4 0.4-0.5c0.2-0.1 0.4-0.2 0.7-0.2c0.4 0 0.8 0.1 1 0.4c0.3 0.3 0.4 0.8 0.4 1.4c0 0.7-0.1 1.2-0.4 1.5 c-0.3 0.3-0.6 0.4-1.1 0.4c-0.2 0-0.4 0-0.6-0.1s-0.4-0.2-0.7-0.3v-0.6H-154.1"/>
					<path inkscape:connector-curvature="0" fill="#231F20" d="M-157.7 437.8h-1.7v6.3h1.7V437.8"/>
					<path inkscape:connector-curvature="0" fill="#231F20" d="M-164.3 444.1h1.6v-0.7c0.2 0.3 0.5 0.5 0.7 0.6 c0.2 0.1 0.5 0.2 0.9 0.2c0.5 0 0.9-0.1 1.1-0.4c0.3-0.3 0.4-0.7 0.4-1.3v-2.9h-1.7v2.5c0 0.3-0.1 0.5-0.2 0.6 c-0.1 0.1-0.3 0.2-0.4 0.2c-0.2 0-0.4-0.1-0.5-0.2c-0.1-0.2-0.2-0.4-0.2-0.9v-2.2h-1.7V444.1"/>
					<path inkscape:connector-curvature="0" fill="#231F20" d="M-169.5 442.3h3.5c0 0.3-0.1 0.5-0.2 0.6 c-0.2 0.2-0.4 0.3-0.7 0.3c-0.2 0-0.3 0-0.5-0.1c-0.1-0.1-0.2-0.1-0.3-0.3l-1.7 0.2c0.3 0.5 0.6 0.8 0.9 1 c0.4 0.2 0.9 0.3 1.6 0.3c0.6 0 1.1-0.1 1.4-0.3c0.3-0.2 0.6-0.4 0.9-0.8c0.2-0.4 0.3-0.8 0.3-1.3c0-0.7-0.2-1.3-0.7-1.7 c-0.5-0.4-1.1-0.7-1.9-0.7c-0.6 0-1.2 0.1-1.5 0.3c-0.4 0.2-0.7 0.5-0.9 0.9s-0.3 0.9-0.3 1.5V442.3 M-167.7 441.4 c0-0.3 0.1-0.6 0.3-0.7c0.1-0.1 0.3-0.2 0.6-0.2c0.3 0 0.5 0.1 0.7 0.3c0.1 0.1 0.2 0.3 0.2 0.6H-167.7"/>
					<path inkscape:connector-curvature="0" fill="#231F20" d="M-175.5 441.8v-1.3h-3v2.7c0.6 0.4 1.1 0.7 1.5 0.8 c0.4 0.1 1 0.2 1.6 0.2c0.7 0 1.4-0.1 1.8-0.4c0.5-0.3 0.8-0.6 1.1-1.1c0.3-0.5 0.4-1.1 0.4-1.7c0-0.7-0.1-1.3-0.4-1.8 c-0.3-0.5-0.7-0.9-1.2-1.2c-0.4-0.2-1-0.3-1.7-0.3c-0.7 0-1.2 0.1-1.6 0.2c-0.3 0.1-0.6 0.3-0.9 0.6c-0.2 0.3-0.4 0.6-0.5 1 l1.9 0.3c0.1-0.2 0.2-0.4 0.4-0.5c0.2-0.1 0.4-0.2 0.7-0.2c0.4 0 0.8 0.1 1 0.4c0.3 0.3 0.4 0.8 0.4 1.4c0 0.7-0.1 1.2-0.4 1.5 c-0.3 0.3-0.6 0.4-1.1 0.4c-0.2 0-0.4 0-0.6-0.1s-0.4-0.2-0.7-0.3v-0.6H-175.5"/>
				</g>
				<g transform="matrix(0,1,1,0,-16.582343,-257.65045)">
					<path inkscape:connector-curvature="0" fill="#231F20" d="M-154.1 475.8v-1.3h-3v2.7c0.6 0.4 1.1 0.7 1.5 0.8 c0.4 0.1 1 0.2 1.6 0.2c0.7 0 1.4-0.1 1.8-0.4c0.5-0.3 0.8-0.6 1.1-1.1c0.3-0.5 0.4-1.1 0.4-1.7c0-0.7-0.1-1.3-0.4-1.8 c-0.3-0.5-0.7-0.9-1.2-1.2c-0.4-0.2-1-0.3-1.7-0.3c-0.7 0-1.2 0.1-1.6 0.2c-0.3 0.1-0.6 0.3-0.9 0.6c-0.2 0.3-0.4 0.6-0.5 1 l1.9 0.3c0.1-0.2 0.2-0.4 0.4-0.5c0.2-0.1 0.4-0.2 0.7-0.2c0.4 0 0.8 0.1 1 0.4c0.3 0.3 0.4 0.8 0.4 1.4c0 0.7-0.1 1.2-0.4 1.5 c-0.3 0.3-0.6 0.4-1.1 0.4c-0.2 0-0.4 0-0.6-0.1c-0.2-0.1-0.4-0.2-0.7-0.3v-0.6H-154.1"/>
					<path inkscape:connector-curvature="0" fill="#231F20" d="M-157.7 471.8h-1.7v6.3h1.7V471.8"/>
					<path inkscape:connector-curvature="0" fill="#231F20" d="M-164.3 478.1h1.6v-0.7c0.2 0.3 0.5 0.5 0.7 0.6 c0.2 0.1 0.5 0.2 0.9 0.2c0.5 0 0.9-0.1 1.1-0.4c0.3-0.3 0.4-0.7 0.4-1.3v-2.9h-1.7v2.5c0 0.3-0.1 0.5-0.2 0.6 c-0.1 0.1-0.3 0.2-0.4 0.2c-0.2 0-0.4-0.1-0.5-0.2c-0.1-0.2-0.2-0.4-0.2-0.9v-2.2h-1.7V478.1"/>
					<path inkscape:connector-curvature="0" fill="#231F20" d="M-169.5 476.3h3.5c0 0.3-0.1 0.5-0.2 0.6 c-0.2 0.2-0.4 0.3-0.7 0.3c-0.2 0-0.3 0-0.5-0.1c-0.1-0.1-0.2-0.1-0.3-0.3l-1.7 0.2c0.3 0.5 0.6 0.8 0.9 1 c0.4 0.2 0.9 0.3 1.6 0.3c0.6 0 1.1-0.1 1.4-0.3c0.3-0.2 0.6-0.4 0.9-0.8c0.2-0.4 0.3-0.8 0.3-1.3c0-0.7-0.2-1.3-0.7-1.7 c-0.5-0.4-1.1-0.7-1.9-0.7c-0.6 0-1.2 0.1-1.5 0.3s-0.7 0.5-0.9 0.9s-0.3 0.9-0.3 1.5V476.3 M-167.7 475.4 c0-0.3 0.1-0.6 0.3-0.7c0.1-0.1 0.3-0.2 0.6-0.2c0.3 0 0.5 0.1 0.7 0.3c0.1 0.1 0.2 0.3 0.2 0.6H-167.7"/>
					<path inkscape:connector-curvature="0" fill="#231F20" d="M-175.5 475.8v-1.3h-3v2.7c0.6 0.4 1.1 0.7 1.5 0.8 c0.4 0.1 1 0.2 1.6 0.2c0.7 0 1.4-0.1 1.8-0.4c0.5-0.3 0.8-0.6 1.1-1.1c0.3-0.5 0.4-1.1 0.4-1.7c0-0.7-0.1-1.3-0.4-1.8 c-0.3-0.5-0.7-0.9-1.2-1.2c-0.4-0.2-1-0.3-1.7-0.3c-0.7 0-1.2 0.1-1.6 0.2c-0.3 0.1-0.6 0.3-0.9 0.6c-0.2 0.3-0.4 0.6-0.5 1 l1.9 0.3c0.1-0.2 0.2-0.4 0.4-0.5c0.2-0.1 0.4-0.2 0.7-0.2c0.4 0 0.8 0.1 1 0.4c0.3 0.3 0.4 0.8 0.4 1.4c0 0.7-0.1 1.2-0.4 1.5 c-0.3 0.3-0.6 0.4-1.1 0.4c-0.2 0-0.4 0-0.6-0.1c-0.2-0.1-0.4-0.2-0.7-0.3v-0.6H-175.5"/>
				</g>
				<g transform="matrix(0,-1,-1,0,-16.582343,-257.65045)">
					<path inkscape:connector-curvature="0" fill="#231F20" d="M243.1-858.1v-1.3h-3v2.7c0.6 0.4 1.1 0.7 1.5 0.8 c0.4 0.1 1 0.2 1.6 0.2c0.7 0 1.4-0.1 1.8-0.4c0.5-0.3 0.8-0.6 1.1-1.1c0.3-0.5 0.4-1.1 0.4-1.7c0-0.7-0.1-1.3-0.4-1.8 c-0.3-0.5-0.7-0.9-1.2-1.2c-0.4-0.2-1-0.3-1.7-0.3c-0.7 0-1.2 0.1-1.6 0.2c-0.3 0.1-0.6 0.3-0.9 0.6c-0.2 0.3-0.4 0.6-0.5 1 l1.9 0.3c0.1-0.2 0.2-0.4 0.4-0.5c0.2-0.1 0.4-0.2 0.7-0.2c0.4 0 0.8 0.1 1 0.4c0.3 0.3 0.4 0.8 0.4 1.4c0 0.7-0.1 1.2-0.4 1.5 c-0.3 0.3-0.6 0.4-1.1 0.4c-0.2 0-0.4 0-0.6-0.1c-0.2-0.1-0.4-0.2-0.7-0.3v-0.6H243.1"/>
					<path inkscape:connector-curvature="0" fill="#231F20" d="M239.5-862.1h-1.7v6.3h1.7V-862.1"/>
					<path inkscape:connector-curvature="0" fill="#231F20" d="M232.8-855.8h1.6v-0.7c0.2 0.3 0.5 0.5 0.7 0.6 c0.2 0.1 0.5 0.2 0.9 0.2c0.5 0 0.9-0.1 1.1-0.4c0.3-0.3 0.4-0.7 0.4-1.3v-2.9h-1.7v2.5c0 0.3-0.1 0.5-0.2 0.6 c-0.1 0.1-0.3 0.2-0.4 0.2c-0.2 0-0.4-0.1-0.5-0.2c-0.1-0.2-0.2-0.4-0.2-0.9v-2.2h-1.7V-855.8"/>
					<path inkscape:connector-curvature="0" fill="#231F20" d="M227.7-857.7h3.5c0 0.3-0.1 0.5-0.2 0.6 c-0.2 0.2-0.4 0.3-0.7 0.3c-0.2 0-0.3 0-0.5-0.1c-0.1-0.1-0.2-0.1-0.3-0.3l-1.7 0.2c0.3 0.5 0.6 0.8 0.9 1 c0.4 0.2 0.9 0.3 1.6 0.3c0.6 0 1.1-0.1 1.4-0.3c0.3-0.2 0.6-0.4 0.9-0.8c0.2-0.4 0.3-0.8 0.3-1.3c0-0.7-0.2-1.3-0.7-1.7 c-0.5-0.4-1.1-0.7-1.9-0.7c-0.6 0-1.2 0.1-1.5 0.3s-0.7 0.5-0.9 0.9c-0.2 0.4-0.3 0.9-0.3 1.5V-857.7 M229.5-858.5 c0-0.3 0.1-0.6 0.3-0.7c0.1-0.1 0.3-0.2 0.6-0.2c0.3 0 0.5 0.1 0.7 0.3c0.1 0.1 0.2 0.3 0.2 0.6H229.5"/>
					<path inkscape:connector-curvature="0" fill="#231F20" d="M224.8-862.1h-1.9v2.2h-2.1v-2.2h-1.9v6.3h1.9v-2.5 h2.1v2.5h1.9V-862.1"/>
				</g>
				<g transform="matrix(0,-1,-1,0,-16.582343,-257.65045)">
					<path inkscape:connector-curvature="0" fill="#231F20" d="M243.1-824.1v-1.3h-3v2.7c0.6 0.4 1.1 0.7 1.5 0.8 c0.4 0.1 1 0.2 1.6 0.2c0.7 0 1.4-0.1 1.8-0.4c0.5-0.3 0.8-0.6 1.1-1.1c0.3-0.5 0.4-1.1 0.4-1.7c0-0.7-0.1-1.3-0.4-1.8 c-0.3-0.5-0.7-0.9-1.2-1.2c-0.4-0.2-1-0.3-1.7-0.3c-0.7 0-1.2 0.1-1.6 0.2c-0.3 0.1-0.6 0.3-0.9 0.6c-0.2 0.3-0.4 0.6-0.5 1 l1.9 0.3c0.1-0.2 0.2-0.4 0.4-0.5c0.2-0.1 0.4-0.2 0.7-0.2c0.4 0 0.8 0.1 1 0.4c0.3 0.3 0.4 0.8 0.4 1.4c0 0.7-0.1 1.2-0.4 1.5 c-0.3 0.3-0.6 0.4-1.1 0.4c-0.2 0-0.4 0-0.6-0.1s-0.4-0.2-0.7-0.3v-0.6H243.1"/>
					<path inkscape:connector-curvature="0" fill="#231F20" d="M239.5-828.1h-1.7v6.3h1.7V-828.1"/>
					<path inkscape:connector-curvature="0" fill="#231F20" d="M232.8-821.8h1.6v-0.7c0.2 0.3 0.5 0.5 0.7 0.6 c0.2 0.1 0.5 0.2 0.9 0.2c0.5 0 0.9-0.1 1.1-0.4c0.3-0.3 0.4-0.7 0.4-1.3v-2.9h-1.7v2.5c0 0.3-0.1 0.5-0.2 0.6 c-0.1 0.1-0.3 0.2-0.4 0.2c-0.2 0-0.4-0.1-0.5-0.2c-0.1-0.2-0.2-0.4-0.2-0.9v-2.2h-1.7V-821.8"/>
					<path inkscape:connector-curvature="0" fill="#231F20" d="M227.7-823.7h3.5c0 0.3-0.1 0.5-0.2 0.6 c-0.2 0.2-0.4 0.3-0.7 0.3c-0.2 0-0.3 0-0.5-0.1c-0.1-0.1-0.2-0.1-0.3-0.3l-1.7 0.2c0.3 0.5 0.6 0.8 0.9 1 c0.4 0.2 0.9 0.3 1.6 0.3c0.6 0 1.1-0.1 1.4-0.3c0.3-0.2 0.6-0.4 0.9-0.8c0.2-0.4 0.3-0.8 0.3-1.3c0-0.7-0.2-1.3-0.7-1.7 c-0.5-0.4-1.1-0.7-1.9-0.7c-0.6 0-1.2 0.1-1.5 0.3s-0.7 0.5-0.9 0.9s-0.3 0.9-0.3 1.5V-823.7 M229.5-824.5 c0-0.3 0.1-0.6 0.3-0.7c0.1-0.1 0.3-0.2 0.6-0.2c0.3 0 0.5 0.1 0.7 0.3c0.1 0.1 0.2 0.3 0.2 0.6H229.5"/>
					<path inkscape:connector-curvature="0" fill="#231F20" d="M224.8-828.1h-1.9v2.2h-2.1v-2.2h-1.9v6.3h1.9v-2.5 h2.1v2.5h1.9V-828.1"/>
				</g>
				
					<path inkscape:connector-curvature="0" fill="#FFFFFF" stroke="#231F20" stroke-width="0.4" stroke-miterlimit="22.9256" d=" M542.6-593.6v-17.3h34.7v17.3H542.6z"/>
				<g transform="matrix(1,0,0,-1,-10.182343,-257.65045)">
					<path inkscape:connector-curvature="0" fill="#231F20" d="M633.2 431v1.3h3v-2.7c-0.6-0.4-1.1-0.7-1.5-0.8 c-0.4-0.1-1-0.2-1.6-0.2c-0.7 0-1.4 0.1-1.8 0.4c-0.5 0.3-0.8 0.6-1.1 1.1c-0.3 0.5-0.4 1.1-0.4 1.7c0 0.7 0.1 1.3 0.4 1.8 c0.3 0.5 0.7 0.9 1.2 1.2c0.4 0.2 1 0.3 1.7 0.3c0.7 0 1.2-0.1 1.6-0.2c0.3-0.1 0.6-0.3 0.9-0.6c0.2-0.3 0.4-0.6 0.5-1 l-1.9-0.3c-0.1 0.2-0.2 0.4-0.4 0.5c-0.2 0.1-0.4 0.2-0.7 0.2c-0.4 0-0.8-0.1-1-0.4c-0.3-0.3-0.4-0.8-0.4-1.4 c0-0.7 0.1-1.2 0.4-1.5c0.3-0.3 0.6-0.4 1.1-0.4c0.2 0 0.4 0 0.6 0.1c0.2 0.1 0.4 0.2 0.7 0.3v0.6H633.2"/>
					<path inkscape:connector-curvature="0" fill="#231F20" d="M636.8 435h1.7v-6.3h-1.7V435"/>
					<path inkscape:connector-curvature="0" fill="#231F20" d="M643.5 428.7h-1.6v0.7c-0.2-0.3-0.5-0.5-0.7-0.6 c-0.2-0.1-0.5-0.2-0.9-0.2c-0.5 0-0.9 0.1-1.1 0.4c-0.3 0.3-0.4 0.7-0.4 1.3v2.9h1.7v-2.5c0-0.3 0.1-0.5 0.2-0.6 c0.1-0.1 0.3-0.2 0.4-0.2c0.2 0 0.4 0.1 0.5 0.2c0.1 0.2 0.2 0.4 0.2 0.9v2.2h1.7V428.7"/>
					<path inkscape:connector-curvature="0" fill="#231F20" d="M648.6 430.5h-3.5c0-0.3 0.1-0.5 0.2-0.6 c0.2-0.2 0.4-0.3 0.7-0.3c0.2 0 0.3 0 0.5 0.1c0.1 0.1 0.2 0.1 0.3 0.3l1.7-0.2c-0.3-0.5-0.6-0.8-0.9-1 c-0.4-0.2-0.9-0.3-1.6-0.3c-0.6 0-1.1 0.1-1.4 0.3c-0.3 0.2-0.6 0.4-0.9 0.8c-0.2 0.4-0.3 0.8-0.3 1.3c0 0.7 0.2 1.3 0.7 1.7 c0.5 0.4 1.1 0.7 1.9 0.7c0.6 0 1.2-0.1 1.5-0.3s0.7-0.5 0.9-0.9c0.2-0.4 0.3-0.9 0.3-1.5V430.5 M646.8 431.4 c0 0.3-0.1 0.6-0.3 0.7c-0.1 0.1-0.3 0.2-0.6 0.2c-0.3 0-0.5-0.1-0.7-0.3c-0.1-0.1-0.2-0.3-0.2-0.6H646.8"/>
					<path inkscape:connector-curvature="0" fill="#231F20" d="M651.5 435h4.8v-1.3h-2.8v-1.1h2.4v-1.3h-2.4v-2.6 h-1.9V435"/>
				</g>
				<g transform="matrix(1,0,0,-1,-10.182343,-257.65045)">
					<path inkscape:connector-curvature="0" fill="#231F20" d="M633.2 393v1.3h3v-2.7c-0.6-0.4-1.1-0.7-1.5-0.8 c-0.4-0.1-1-0.2-1.6-0.2c-0.7 0-1.4 0.1-1.8 0.4c-0.5 0.3-0.8 0.6-1.1 1.1c-0.3 0.5-0.4 1.1-0.4 1.7c0 0.7 0.1 1.3 0.4 1.8 c0.3 0.5 0.7 0.9 1.2 1.2c0.4 0.2 1 0.3 1.7 0.3c0.7 0 1.2-0.1 1.6-0.2c0.3-0.1 0.6-0.3 0.9-0.6c0.2-0.3 0.4-0.6 0.5-1 l-1.9-0.3c-0.1 0.2-0.2 0.4-0.4 0.5c-0.2 0.1-0.4 0.2-0.7 0.2c-0.4 0-0.8-0.1-1-0.4c-0.3-0.3-0.4-0.8-0.4-1.4 c0-0.7 0.1-1.2 0.4-1.5c0.3-0.3 0.6-0.4 1.1-0.4c0.2 0 0.4 0 0.6 0.1c0.2 0.1 0.4 0.2 0.7 0.3v0.6H633.2"/>
					<path inkscape:connector-curvature="0" fill="#231F20" d="M636.8 397h1.7v-6.3h-1.7V397"/>
					<path inkscape:connector-curvature="0" fill="#231F20" d="M643.5 390.7h-1.6v0.7c-0.2-0.3-0.5-0.5-0.7-0.6 c-0.2-0.1-0.5-0.2-0.9-0.2c-0.5 0-0.9 0.1-1.1 0.4c-0.3 0.3-0.4 0.7-0.4 1.3v2.9h1.7v-2.5c0-0.3 0.1-0.5 0.2-0.6 c0.1-0.1 0.3-0.2 0.4-0.2c0.2 0 0.4 0.1 0.5 0.2c0.1 0.2 0.2 0.4 0.2 0.9v2.2h1.7V390.7"/>
					<path inkscape:connector-curvature="0" fill="#231F20" d="M648.6 392.5h-3.5c0-0.3 0.1-0.5 0.2-0.6 c0.2-0.2 0.4-0.3 0.7-0.3c0.2 0 0.3 0 0.5 0.1c0.1 0.1 0.2 0.1 0.3 0.3l1.7-0.2c-0.3-0.5-0.6-0.8-0.9-1 c-0.4-0.2-0.9-0.3-1.6-0.3c-0.6 0-1.1 0.1-1.4 0.3c-0.3 0.2-0.6 0.4-0.9 0.8c-0.2 0.4-0.3 0.8-0.3 1.3c0 0.7 0.2 1.3 0.7 1.7 c0.5 0.4 1.1 0.7 1.9 0.7c0.6 0 1.2-0.1 1.5-0.3s0.7-0.5 0.9-0.9c0.2-0.4 0.3-0.9 0.3-1.5V392.5 M646.8 393.4 c0 0.3-0.1 0.6-0.3 0.7c-0.1 0.1-0.3 0.2-0.6 0.2c-0.3 0-0.5-0.1-0.7-0.3c-0.1-0.1-0.2-0.3-0.2-0.6H646.8"/>
					<path inkscape:connector-curvature="0" fill="#231F20" d="M651.5 397h4.8v-1.3h-2.8v-1.1h2.4v-1.3h-2.4v-2.6 h-1.9V397"/>
				</g>
				
					<path inkscape:connector-curvature="0" fill="none" stroke="#000000" stroke-width="0.6" stroke-dasharray="2.4,2.4" d=" M441.7-581.1v27V-453v158.6v39.6"/>
				
					<path inkscape:connector-curvature="0" fill="none" stroke="#000000" stroke-width="0.5998" stroke-dasharray="2.3994,2.3994" d=" M824.3-581.1v27v101v158.5v39.5"/>
				<g transform="matrix(1,0,0,-1,-10.182343,-257.65045)">
					<path inkscape:connector-curvature="0" fill="#231F20" d="M700.6-68.9v1.3h3v-2.7c-0.6-0.4-1.1-0.7-1.5-0.8 c-0.4-0.1-1-0.2-1.6-0.2c-0.7 0-1.4 0.1-1.8 0.4c-0.5 0.3-0.8 0.6-1.1 1.1c-0.3 0.5-0.4 1.1-0.4 1.7c0 0.7 0.1 1.3 0.4 1.8 c0.3 0.5 0.7 0.9 1.2 1.2c0.4 0.2 1 0.3 1.7 0.3c0.7 0 1.2-0.1 1.6-0.2c0.3-0.1 0.6-0.3 0.9-0.6c0.2-0.3 0.4-0.6 0.5-1 l-1.9-0.3c-0.1 0.2-0.2 0.4-0.4 0.5c-0.2 0.1-0.4 0.2-0.7 0.2c-0.4 0-0.8-0.1-1-0.4c-0.3-0.3-0.4-0.8-0.4-1.4 c0-0.7 0.1-1.2 0.4-1.5c0.3-0.3 0.6-0.4 1.1-0.4c0.2 0 0.4 0 0.6 0.1s0.4 0.2 0.7 0.3v0.6H700.6"/>
					<path inkscape:connector-curvature="0" fill="#231F20" d="M704.2-64.9h1.7v-6.3h-1.7V-64.9"/>
					<path inkscape:connector-curvature="0" fill="#231F20" d="M710.8-71.2h-1.6v0.7c-0.2-0.3-0.5-0.5-0.7-0.6 c-0.2-0.1-0.5-0.2-0.9-0.2c-0.5 0-0.9 0.1-1.1 0.4c-0.3 0.3-0.4 0.7-0.4 1.3v2.9h1.7v-2.5c0-0.3 0.1-0.5 0.2-0.6 s0.3-0.2 0.4-0.2c0.2 0 0.4 0.1 0.5 0.2c0.1 0.2 0.2 0.4 0.2 0.9v2.2h1.7V-71.2"/>
					<path inkscape:connector-curvature="0" fill="#231F20" d="M715.9-69.3h-3.5c0-0.3 0.1-0.5 0.2-0.6 c0.2-0.2 0.4-0.3 0.7-0.3c0.2 0 0.3 0 0.5 0.1c0.1 0.1 0.2 0.1 0.3 0.3l1.7-0.2c-0.3-0.5-0.6-0.8-0.9-1 c-0.4-0.2-0.9-0.3-1.6-0.3c-0.6 0-1.1 0.1-1.4 0.3c-0.3 0.2-0.6 0.4-0.9 0.8c-0.2 0.4-0.3 0.8-0.3 1.3c0 0.7 0.2 1.3 0.7 1.7 c0.5 0.4 1.1 0.7 1.9 0.7c0.6 0 1.2-0.1 1.5-0.3s0.7-0.5 0.9-0.9s0.3-0.9 0.3-1.5V-69.3 M714.2-68.5c0 0.3-0.1 0.6-0.3 0.7 c-0.1 0.1-0.3 0.2-0.6 0.2c-0.3 0-0.5-0.1-0.7-0.3c-0.1-0.1-0.2-0.3-0.2-0.6H714.2"/>
					<path inkscape:connector-curvature="0" fill="#231F20" d="M718.9-64.9h1.9v-6.3h-1.9V-64.9"/>
				</g>
				<g transform="matrix(1,0,0,-1,-10.182343,-257.65045)">
					<path inkscape:connector-curvature="0" fill="#231F20" d="M700.6-106.9v1.3h3v-2.7c-0.6-0.4-1.1-0.7-1.5-0.8 c-0.4-0.1-1-0.2-1.6-0.2c-0.7 0-1.4 0.1-1.8 0.4c-0.5 0.3-0.8 0.6-1.1 1.1c-0.3 0.5-0.4 1.1-0.4 1.7c0 0.7 0.1 1.3 0.4 1.8 c0.3 0.5 0.7 0.9 1.2 1.2c0.4 0.2 1 0.3 1.7 0.3c0.7 0 1.2-0.1 1.6-0.2c0.3-0.1 0.6-0.3 0.9-0.6c0.2-0.3 0.4-0.6 0.5-1 l-1.9-0.3c-0.1 0.2-0.2 0.4-0.4 0.5c-0.2 0.1-0.4 0.2-0.7 0.2c-0.4 0-0.8-0.1-1-0.4c-0.3-0.3-0.4-0.8-0.4-1.4 c0-0.7 0.1-1.2 0.4-1.5c0.3-0.3 0.6-0.4 1.1-0.4c0.2 0 0.4 0 0.6 0.1s0.4 0.2 0.7 0.3v0.6H700.6"/>
					<path inkscape:connector-curvature="0" fill="#231F20" d="M704.2-102.9h1.7v-6.3h-1.7V-102.9"/>
					<path inkscape:connector-curvature="0" fill="#231F20" d="M710.8-109.2h-1.6v0.7c-0.2-0.3-0.5-0.5-0.7-0.6 c-0.2-0.1-0.5-0.2-0.9-0.2c-0.5 0-0.9 0.1-1.1 0.4c-0.3 0.3-0.4 0.7-0.4 1.3v2.9h1.7v-2.5c0-0.3 0.1-0.5 0.2-0.6 s0.3-0.2 0.4-0.2c0.2 0 0.4 0.1 0.5 0.2c0.1 0.2 0.2 0.4 0.2 0.9v2.2h1.7V-109.2"/>
					<path inkscape:connector-curvature="0" fill="#231F20" d="M715.9-107.3h-3.5c0-0.3 0.1-0.5 0.2-0.6 c0.2-0.2 0.4-0.3 0.7-0.3c0.2 0 0.3 0 0.5 0.1c0.1 0.1 0.2 0.1 0.3 0.3l1.7-0.2c-0.3-0.5-0.6-0.8-0.9-1 c-0.4-0.2-0.9-0.3-1.6-0.3c-0.6 0-1.1 0.1-1.4 0.3c-0.3 0.2-0.6 0.4-0.9 0.8c-0.2 0.4-0.3 0.8-0.3 1.3c0 0.7 0.2 1.3 0.7 1.7 c0.5 0.4 1.1 0.7 1.9 0.7c0.6 0 1.2-0.1 1.5-0.3s0.7-0.5 0.9-0.9c0.2-0.4 0.3-0.9 0.3-1.5V-107.3 M714.2-106.5 c0 0.3-0.1 0.6-0.3 0.7c-0.1 0.1-0.3 0.2-0.6 0.2c-0.3 0-0.5-0.1-0.7-0.3c-0.1-0.1-0.2-0.3-0.2-0.6H714.2"/>
					<path inkscape:connector-curvature="0" fill="#231F20" d="M718.9-102.9h1.9v-6.3h-1.9V-102.9"/>
				</g>
			</g>
		</g>
		<text transform="matrix(1.0678 0 0 1.0678 249.7338 -186.5067)" font-family="'Arial-BoldMT'" font-size="12.6082">Instructions:</text>
		<text transform="matrix(1.0678 0 0 1.0678 249.7338 -152.8475)" font-family="'ArialMT'" font-size="12.6082">1) Cut the solid lines</text>
		<text transform="matrix(1.0678 0 0 1.0678 249.7338 -119.1886)" font-family="'ArialMT'" font-size="12.6082">2) Score along the dotted lines</text>
		<text transform="matrix(1.0678 0 0 1.0678 249.7338 -85.5305)" font-family="'ArialMT'" font-size="12.6082">3) Fold the flaps and glue the </text>
		<text transform="matrix(1.0678 0 0 1.0678 249.7338 -68.7004)" font-family="'ArialMT'" font-size="12.6082">matching letters together</text>
		<text transform="matrix(1.0678 0 0 1.0678 249.7338 -35.0414)" font-family="'Arial-BoldMT'" font-size="12.6082">Optional:</text>
		<text transform="matrix(1.0678 0 0 1.0678 249.7338 -1.3823)" font-family="'ArialMT'" font-size="12.6082">Spray the finished product</text>
		<text transform="matrix(1.0678 0 0 1.0678 249.7338 15.4467)" font-family="'ArialMT'" font-size="12.6082">with a polyurethane finish in</text>
		<text transform="matrix(1.0678 0 0 1.0678 249.7338 32.2769)" font-family="'ArialMT'" font-size="12.6082">a well ventilated area for a</text>
		<text transform="matrix(1.0678 0 0 1.0678 249.7338 49.1059)" font-family="'ArialMT'" font-size="12.6082">hard finish that will help protect </text>
		<text transform="matrix(1.0678 0 0 1.0678 249.7338 65.9359)" font-family="'ArialMT'" font-size="12.6082">your R-Pi.</text>
		<text transform="matrix(1.0678 0 0 1.0678 598.8738 -281.3261)" font-family="'Arial-BoldMT'" font-size="62.612">Paper-Pi</text>
		<g transform="matrix(0.31981332,0,0,0.31981332,316.97734,876.91832)">
			
				<rect x="787.5" y="-3724.9" fill="#333333" stroke="#000000" stroke-width="4.128429e-02" width="40.1" height="28.4"/>
			
				<rect x="760.1" y="-3657.2" fill="#333333" stroke="#000000" stroke-width="8.996441e-02" width="18.2" height="39"/>
			
				<rect x="788.8" y="-3649.1" fill="#333333" stroke="#000000" stroke-width="7.117859e-02" width="18.7" height="39.1"/>
			
				<rect x="814.7" y="-3657.1" fill="#333333" stroke="#000000" stroke-width="7.588664e-02" width="17.4" height="18.4"/>
			
				<rect x="747.2" y="-3713.1" fill="#333333" stroke="#000000" stroke-width="8.344196e-02" width="29.6" height="46.9"/>
			<rect x="721.3" y="-3607.5" fill="#333333" stroke="#000000" stroke-width="0.1184" width="61.9" height="23.4"/>
			
				<rect x="711.7" y="-3718.4" fill="#333333" stroke="#000000" stroke-width="7.402056e-02" width="26.2" height="65.7"/>
			<rect x="714.7" y="-3643.9" fill="#333333" stroke="#000000" stroke-width="0.104" width="35.9" height="23"/>
			
				<rect x="784.5" y="-3687.8" fill="#333333" stroke="#000000" stroke-width="6.793971e-02" width="53.8" height="22"/>
			<rect x="674.2" y="-3720" fill="#333333" stroke="#000000" stroke-width="5.006760e-02" width="25" height="65"/>
			<rect x="694.2" y="-3778" fill="#333333" stroke="#000000" stroke-width="4.322886e-02" width="56" height="48"/>
			<rect x="762.2" y="-3791" fill="#333333" stroke="#000000" stroke-width="4.406131e-02" width="61" height="54"/>
			
				<rect x="680.2" y="-3792" fill="#333333" stroke="#000000" stroke-width="4.322886e-02" width="56" height="48"/>
			
				<rect x="770.2" y="-3803" fill="#333333" stroke="#000000" stroke-width="4.406131e-02" width="61" height="54"/>
			
				<rect x="689.5" y="-3647.3" fill="#333333" stroke="#000000" stroke-width="0.1008" width="17.4" height="32.5"/>
		</g>
		<text transform="matrix(1.0678 0 0 1.0678 816.7585 -248.5846)" font-family="'ArialMT'" font-size="27.1236">v0.1</text>
	</g>
</g>
<g transform="matrix(-1,0,0,-1,611.54226,462.9407)">
	
		<rect x="-276.3" y="-98.7" fill="#FFFFFF" stroke="#000000" stroke-width="0.3951" stroke-dasharray="2.3705,2.3705" width="61.4" height="88.5"/>
	
		<rect x="-276.3" y="193.4" fill="#FFFFFF" stroke="#000000" stroke-width="0.3996" stroke-dasharray="2.3978,2.3978" width="122" height="88.7"/>
	
		<rect x="-73.4" y="193.3" fill="#FFFFFF" stroke="#000000" stroke-width="0.3998" stroke-dasharray="2.3988,2.3988" width="122.4" height="88.8"/>
	
		<rect x="-73.8" y="-99.1" fill="#FFFFFF" stroke="#000000" stroke-width="0.4" stroke-dasharray="2.4,2.4" width="122.9" height="88.8"/>
	
		<path inkscape:connector-curvature="0" fill="#E9C6AF" fill-opacity="0" stroke="#000000" stroke-width="0.5" d=" M-245.6-135.3l-31.1 36c0 0-25 11.8-35.9 17.1v53.9l35.6 17.5l-35.6-0.1l0 204.3l35.5 0.1l-35.5 17.7v53.9l36.2 17.4l30.9 35.8 h91.2v-35.8c0 0 0-62.7 0-89l17.8 34.3h45.2l17.9-34.2l0.1 124.5l91.7 0.2c11-10.2 31.1-35.6 31.1-35.6c11.6-6 24.1-11.7 36-17.4 V211l-35.6-17.4l121.5-0.1l17.8-34.1h45.2l17.8 34l87.2 0l0.1-203.6H313l-17.8 33.9h-106l-17.8-33.9l-121.9 0 c11.1-6 25.1-12.5 35.8-17.7v-54.4l-36-17.1c0 0-20.3-24.1-30.5-35.9h-92.7C-74-93.5-73.9-10.3-73.9-10.3l-17.5-33.9l-105.9-0.6 L-215-10.6l0.2-124.7H-245.6z"/>
	
		<rect x="-276.3" y="-10.2" fill="#E9C6AF" fill-opacity="0" stroke="#000000" stroke-width="0.4028" stroke-dasharray="3.2225,3.2225" width="325.3" height="203.6"/>
	<text transform="matrix(-1 0 0 -1 -49.7966 84.1995)" font-family="'Arial-BoldMT'" font-size="24">inside cover</text>
	<text transform="matrix(0 1 -1 0 63.1868 26.8599)" fill="#231F20" font-family="'Arial-Black'" font-size="8.75">G</text>
	<text transform="matrix(0 1 -1 0 63.1868 33.668)" fill="#231F20" font-family="'Arial-Black'" font-size="8.75">l</text>
	<text transform="matrix(0 1 -1 0 63.1868 35.6099)" fill="#231F20" font-family="'Arial-Black'" font-size="8.75">u</text>
	<text transform="matrix(0 1 -1 0 63.1868 40.4746)" fill="#231F20" font-family="'Arial-Black'" font-size="8.75">e</text>
	<text transform="matrix(0 1 -1 0 63.1868 45.3406)" fill="#231F20" font-family="'Arial-Black'" font-size="8.75"> A</text>
	<text transform="matrix(0 1 -1 0 25.1868 26.8599)" fill="#231F20" font-family="'Arial-Black'" font-size="8.75">G</text>
	<text transform="matrix(0 1 -1 0 25.1868 33.668)" fill="#231F20" font-family="'Arial-Black'" font-size="8.75">l</text>
	<text transform="matrix(0 1 -1 0 25.1868 35.6099)" fill="#231F20" font-family="'Arial-Black'" font-size="8.75">u</text>
	<text transform="matrix(0 1 -1 0 25.1868 40.4746)" fill="#231F20" font-family="'Arial-Black'" font-size="8.75">e</text>
	<text transform="matrix(0 1 -1 0 25.1868 45.3406)" fill="#231F20" font-family="'Arial-Black'" font-size="8.75"> A</text>
	<text transform="matrix(0 1 -1 0 -258.8102 126.8599)" fill="#231F20" font-family="'Arial-Black'" font-size="8.75">G</text>
	<text transform="matrix(0 1 -1 0 -258.8102 133.668)" fill="#231F20" font-family="'Arial-Black'" font-size="8.75">l</text>
	<text transform="matrix(0 1 -1 0 -258.8102 135.6099)" fill="#231F20" font-family="'Arial-Black'" font-size="8.75">u</text>
	<text transform="matrix(0 1 -1 0 -258.8102 140.4746)" fill="#231F20" font-family="'Arial-Black'" font-size="8.75">e</text>
	<text transform="matrix(0 1 -1 0 -258.8102 145.3406)" fill="#231F20" font-family="'Arial-Black'" font-size="8.75"> B</text>
	<text transform="matrix(0 1 -1 0 -296.8103 126.8599)" fill="#231F20" font-family="'Arial-Black'" font-size="8.75">G</text>
	<text transform="matrix(0 1 -1 0 -296.8103 133.668)" fill="#231F20" font-family="'Arial-Black'" font-size="8.75">l</text>
	<text transform="matrix(0 1 -1 0 -296.8103 135.6099)" fill="#231F20" font-family="'Arial-Black'" font-size="8.75">u</text>
	<text transform="matrix(0 1 -1 0 -296.8103 140.4746)" fill="#231F20" font-family="'Arial-Black'" font-size="8.75">e</text>
	<text transform="matrix(0 1 -1 0 -296.8103 145.3406)" fill="#231F20" font-family="'Arial-Black'" font-size="8.75"> B</text>
	<text transform="matrix(1 0 0 1 -153.7463 -26.0056)" fill="#231F20" font-family="'Arial-Black'" font-size="8.75">G</text>
	<text transform="matrix(1 0 0 1 -146.9397 -26.0056)" fill="#231F20" font-family="'Arial-Black'" font-size="8.75">l</text>
	<text transform="matrix(1 0 0 1 -144.9963 -26.0056)" fill="#231F20" font-family="'Arial-Black'" font-size="8.75">u</text>
	<text transform="matrix(1 0 0 1 -140.1316 -26.0056)" fill="#231F20" font-family="'Arial-Black'" font-size="8.75">e</text>
	<text transform="matrix(1 0 0 1 -135.2668 -26.0056)" fill="#231F20" font-family="'Arial-Black'" font-size="8.75"> C</text>
	<text transform="matrix(1 0 0 1 -153.7463 5.9949)" fill="#231F20" font-family="'Arial-Black'" font-size="8.75">G</text>
	<text transform="matrix(1 0 0 1 -146.9397 5.9949)" fill="#231F20" font-family="'Arial-Black'" font-size="8.75">l</text>
	<text transform="matrix(1 0 0 1 -144.9963 5.9949)" fill="#231F20" font-family="'Arial-Black'" font-size="8.75">u</text>
	<text transform="matrix(1 0 0 1 -140.1316 5.9949)" fill="#231F20" font-family="'Arial-Black'" font-size="8.75">e</text>
	<text transform="matrix(1 0 0 1 -135.2668 5.9949)" fill="#231F20" font-family="'Arial-Black'" font-size="8.75"> C</text>
	<text transform="matrix(-1 0 0 -1 -98.7673 207.2942)" fill="#231F20" font-family="'Arial-Black'" font-size="8.75">G</text>
	<text transform="matrix(-1 0 0 -1 -105.575 207.2942)" fill="#231F20" font-family="'Arial-Black'" font-size="8.75">l</text>
	<text transform="matrix(-1 0 0 -1 -107.5173 207.2942)" fill="#231F20" font-family="'Arial-Black'" font-size="8.75">u</text>
	<text transform="matrix(-1 0 0 -1 -112.3826 207.2942)" fill="#231F20" font-family="'Arial-Black'" font-size="8.75">e</text>
	<text transform="matrix(-1 0 0 -1 -117.2478 207.2942)" fill="#231F20" font-family="'Arial-Black'" font-size="8.75"> D</text>
	<text transform="matrix(-1 0 0 -1 -98.7673 175.2933)" fill="#231F20" font-family="'Arial-Black'" font-size="8.75">G</text>
	<text transform="matrix(-1 0 0 -1 -105.575 175.2933)" fill="#231F20" font-family="'Arial-Black'" font-size="8.75">l</text>
	<text transform="matrix(-1 0 0 -1 -107.5173 175.2933)" fill="#231F20" font-family="'Arial-Black'" font-size="8.75">u</text>
	<text transform="matrix(-1 0 0 -1 -112.3826 175.2933)" fill="#231F20" font-family="'Arial-Black'" font-size="8.75">e</text>
	<text transform="matrix(-1 0 0 -1 -117.2478 175.2933)" fill="#231F20" font-family="'Arial-Black'" font-size="8.75"> D</text>
	<text transform="matrix(0 1 -1 0 63.1868 -67.1399)" fill="#231F20" font-family="'Arial-Black'" font-size="8.75">G</text>
	<text transform="matrix(0 1 -1 0 63.1868 -60.3332)" fill="#231F20" font-family="'Arial-Black'" font-size="8.75">l</text>
	<text transform="matrix(0 1 -1 0 63.1868 -58.3899)" fill="#231F20" font-family="'Arial-Black'" font-size="8.75">u</text>
	<text transform="matrix(0 1 -1 0 63.1868 -53.5251)" fill="#231F20" font-family="'Arial-Black'" font-size="8.75">e</text>
	<text transform="matrix(0 1 -1 0 63.1868 -48.6604)" fill="#231F20" font-family="'Arial-Black'" font-size="8.75"> E</text>
	<text transform="matrix(0 1 -1 0 25.1868 -67.1399)" fill="#231F20" font-family="'Arial-Black'" font-size="8.75">G</text>
	<text transform="matrix(0 1 -1 0 25.1868 -60.3332)" fill="#231F20" font-family="'Arial-Black'" font-size="8.75">l</text>
	<text transform="matrix(0 1 -1 0 25.1868 -58.3899)" fill="#231F20" font-family="'Arial-Black'" font-size="8.75">u</text>
	<text transform="matrix(0 1 -1 0 25.1868 -53.5251)" fill="#231F20" font-family="'Arial-Black'" font-size="8.75">e</text>
	<text transform="matrix(0 1 -1 0 25.1868 -48.6604)" fill="#231F20" font-family="'Arial-Black'" font-size="8.75"> E</text>
	<text transform="matrix(0 1 -1 0 63.1868 222.8616)" fill="#231F20" font-family="'Arial-Black'" font-size="8.75">G</text>
	<text transform="matrix(0 1 -1 0 63.1868 229.6682)" fill="#231F20" font-family="'Arial-Black'" font-size="8.75">l</text>
	<text transform="matrix(0 1 -1 0 63.1868 231.6116)" fill="#231F20" font-family="'Arial-Black'" font-size="8.75">u</text>
	<text transform="matrix(0 1 -1 0 63.1868 236.4749)" fill="#231F20" font-family="'Arial-Black'" font-size="8.75">e</text>
	<text transform="matrix(0 1 -1 0 63.1868 241.3396)" fill="#231F20" font-family="'Arial-Black'" font-size="8.75"> F</text>
	<text transform="matrix(0 1 -1 0 25.1868 222.8616)" fill="#231F20" font-family="'Arial-Black'" font-size="8.75">G</text>
	<text transform="matrix(0 1 -1 0 25.1868 229.6682)" fill="#231F20" font-family="'Arial-Black'" font-size="8.75">l</text>
	<text transform="matrix(0 1 -1 0 25.1868 231.6116)" fill="#231F20" font-family="'Arial-Black'" font-size="8.75">u</text>
	<text transform="matrix(0 1 -1 0 25.1868 236.4749)" fill="#231F20" font-family="'Arial-Black'" font-size="8.75">e</text>
	<text transform="matrix(0 1 -1 0 25.1868 241.3396)" fill="#231F20" font-family="'Arial-Black'" font-size="8.75"> F</text>
	<text transform="matrix(0 1 -1 0 -258.8142 222.8616)" fill="#231F20" font-family="'Arial-Black'" font-size="8.75">G</text>
	<text transform="matrix(0 1 -1 0 -258.8142 229.6682)" fill="#231F20" font-family="'Arial-Black'" font-size="8.75">l</text>
	<text transform="matrix(0 1 -1 0 -258.8142 231.6116)" fill="#231F20" font-family="'Arial-Black'" font-size="8.75">u</text>
	<text transform="matrix(0 1 -1 0 -258.8142 236.4749)" fill="#231F20" font-family="'Arial-Black'" font-size="8.75">e</text>
	<text transform="matrix(0 1 -1 0 -258.8142 241.3396)" fill="#231F20" font-family="'Arial-Black'" font-size="8.75"> I</text>
	<text transform="matrix(0 1 -1 0 -296.8142 222.8616)" fill="#231F20" font-family="'Arial-Black'" font-size="8.75">G</text>
	<text transform="matrix(0 1 -1 0 -296.8142 229.6682)" fill="#231F20" font-family="'Arial-Black'" font-size="8.75">l</text>
	<text transform="matrix(0 1 -1 0 -296.8142 231.6116)" fill="#231F20" font-family="'Arial-Black'" font-size="8.75">u</text>
	<text transform="matrix(0 1 -1 0 -296.8142 236.4749)" fill="#231F20" font-family="'Arial-Black'" font-size="8.75">e</text>
	<text transform="matrix(0 1 -1 0 -296.8142 241.3396)" fill="#231F20" font-family="'Arial-Black'" font-size="8.75"> I</text>
	<text transform="matrix(0 1 -1 0 -258.8142 -67.1399)" fill="#231F20" font-family="'Arial-Black'" font-size="8.75">G</text>
	<text transform="matrix(0 1 -1 0 -258.8142 -60.3332)" fill="#231F20" font-family="'Arial-Black'" font-size="8.75">l</text>
	<text transform="matrix(0 1 -1 0 -258.8142 -58.3899)" fill="#231F20" font-family="'Arial-Black'" font-size="8.75">u</text>
	<text transform="matrix(0 1 -1 0 -258.8142 -53.5251)" fill="#231F20" font-family="'Arial-Black'" font-size="8.75">e</text>
	<text transform="matrix(0 1 -1 0 -258.8142 -48.6604)" fill="#231F20" font-family="'Arial-Black'" font-size="8.75"> H</text>
	<text transform="matrix(0 1 -1 0 -296.8142 -67.1399)" fill="#231F20" font-family="'Arial-Black'" font-size="8.75">G</text>
	<text transform="matrix(0 1 -1 0 -296.8142 -60.3332)" fill="#231F20" font-family="'Arial-Black'" font-size="8.75">l</text>
	<text transform="matrix(0 1 -1 0 -296.8142 -58.3899)" fill="#231F20" font-family="'Arial-Black'" font-size="8.75">u</text>
	<text transform="matrix(0 1 -1 0 -296.8142 -53.5251)" fill="#231F20" font-family="'Arial-Black'" font-size="8.75">e</text>
	<text transform="matrix(0 1 -1 0 -296.8142 -48.6604)" fill="#231F20" font-family="'Arial-Black'" font-size="8.75"> H</text>
	<text transform="matrix(1 0 0 1 -251.9983 -114.6928)" fill="#231F20" font-family="'Arial-Black'" font-size="8.75">G</text>
	<text transform="matrix(1 0 0 1 -245.1902 -114.6928)" fill="#231F20" font-family="'Arial-Black'" font-size="8.75">l</text>
	<text transform="matrix(1 0 0 1 -243.2483 -114.6928)" fill="#231F20" font-family="'Arial-Black'" font-size="8.75">u</text>
	<text transform="matrix(1 0 0 1 -238.3835 -114.6928)" fill="#231F20" font-family="'Arial-Black'" font-size="8.75">e</text>
	<text transform="matrix(1 0 0 1 -233.5188 -114.6928)" fill="#231F20" font-family="'Arial-Black'" font-size="8.75"> G</text>
	<text transform="matrix(1 0 0 1 -251.9983 -76.6933)" fill="#231F20" font-family="'Arial-Black'" font-size="8.75">G</text>
	<text transform="matrix(1 0 0 1 -245.1902 -76.6933)" fill="#231F20" font-family="'Arial-Black'" font-size="8.75">l</text>
	<text transform="matrix(1 0 0 1 -243.2483 -76.6933)" fill="#231F20" font-family="'Arial-Black'" font-size="8.75">u</text>
	<text transform="matrix(1 0 0 1 -238.3835 -76.6933)" fill="#231F20" font-family="'Arial-Black'" font-size="8.75">e</text>
	<text transform="matrix(1 0 0 1 -233.5188 -76.6933)" fill="#231F20" font-family="'Arial-Black'" font-size="8.75"> G</text>
	<text transform="matrix(-1 0 0 -1 -202.3669 297.0442)" fill="#231F20" font-family="'Arial-Black'" font-size="8.75">G</text>
	<text transform="matrix(-1 0 0 -1 -209.1746 297.0442)" fill="#231F20" font-family="'Arial-Black'" font-size="8.75">l</text>
	<text transform="matrix(-1 0 0 -1 -211.1169 297.0442)" fill="#231F20" font-family="'Arial-Black'" font-size="8.75">u</text>
	<text transform="matrix(-1 0 0 -1 -215.9822 297.0442)" fill="#231F20" font-family="'Arial-Black'" font-size="8.75">e</text>
	<text transform="matrix(-1 0 0 -1 -220.8465 297.0442)" fill="#231F20" font-family="'Arial-Black'" font-size="8.75"> J</text>
	<text transform="matrix(-1 0 0 -1 -202.3669 259.0452)" fill="#231F20" font-family="'Arial-Black'" font-size="8.75">G</text>
	<text transform="matrix(-1 0 0 -1 -209.1746 259.0452)" fill="#231F20" font-family="'Arial-Black'" font-size="8.75">l</text>
	<text transform="matrix(-1 0 0 -1 -211.1169 259.0452)" fill="#231F20" font-family="'Arial-Black'" font-size="8.75">u</text>
	<text transform="matrix(-1 0 0 -1 -215.9822 259.0452)" fill="#231F20" font-family="'Arial-Black'" font-size="8.75">e</text>
	<text transform="matrix(-1 0 0 -1 -220.8465 259.0452)" fill="#231F20" font-family="'Arial-Black'" font-size="8.75"> J</text>
	<text transform="matrix(1 0 0 1 -26.542 -113.1484)" fill="#231F20" font-family="'Arial-Black'" font-size="8.75">G</text>
	<text transform="matrix(1 0 0 1 -19.7354 -113.1484)" fill="#231F20" font-family="'Arial-Black'" font-size="8.75">l</text>
	<text transform="matrix(1 0 0 1 -17.792 -113.1484)" fill="#231F20" font-family="'Arial-Black'" font-size="8.75">u</text>
	<text transform="matrix(1 0 0 1 -12.9287 -113.1484)" fill="#231F20" font-family="'Arial-Black'" font-size="8.75">e</text>
	<text transform="matrix(1 0 0 1 -8.0627 -113.1484)" fill="#231F20" font-family="'Arial-Black'" font-size="8.75"> K</text>
	<text transform="matrix(1 0 0 1 -26.542 -75.1477)" fill="#231F20" font-family="'Arial-Black'" font-size="8.75">G</text>
	<text transform="matrix(1 0 0 1 -19.7354 -75.1477)" fill="#231F20" font-family="'Arial-Black'" font-size="8.75">l</text>
	<text transform="matrix(1 0 0 1 -17.792 -75.1477)" fill="#231F20" font-family="'Arial-Black'" font-size="8.75">u</text>
	<text transform="matrix(1 0 0 1 -12.9287 -75.1477)" fill="#231F20" font-family="'Arial-Black'" font-size="8.75">e</text>
	<text transform="matrix(1 0 0 1 -8.0627 -75.1477)" fill="#231F20" font-family="'Arial-Black'" font-size="8.75"> K</text>
	<text transform="matrix(-1 0 0 -1 1.179 296.5882)" fill="#231F20" font-family="'Arial-Black'" font-size="8.75">G</text>
	<text transform="matrix(-1 0 0 -1 -5.6286 296.5882)" fill="#231F20" font-family="'Arial-Black'" font-size="8.75">l</text>
	<text transform="matrix(-1 0 0 -1 -7.571 296.5882)" fill="#231F20" font-family="'Arial-Black'" font-size="8.75">u</text>
	<text transform="matrix(-1 0 0 -1 -12.4363 296.5882)" fill="#231F20" font-family="'Arial-Black'" font-size="8.75">e</text>
	<text transform="matrix(-1 0 0 -1 -17.3015 296.5882)" fill="#231F20" font-family="'Arial-Black'" font-size="8.75"> L</text>
	<text transform="matrix(-1 0 0 -1 1.179 258.5901)" fill="#231F20" font-family="'Arial-Black'" font-size="8.75">G</text>
	<text transform="matrix(-1 0 0 -1 -5.6286 258.5901)" fill="#231F20" font-family="'Arial-Black'" font-size="8.75">l</text>
	<text transform="matrix(-1 0 0 -1 -7.571 258.5901)" fill="#231F20" font-family="'Arial-Black'" font-size="8.75">u</text>
	<text transform="matrix(-1 0 0 -1 -12.4363 258.5901)" fill="#231F20" font-family="'Arial-Black'" font-size="8.75">e</text>
	<text transform="matrix(-1 0 0 -1 -17.3015 258.5901)" fill="#231F20" font-family="'Arial-Black'" font-size="8.75"> L</text>
</g>
<g transform="translate(738.05726,261.36395)">
	<g transform="translate(-364.8,32.8)">
		<path inkscape:connector-curvature="0" fill="none" stroke="#000000" stroke-width="0.4" stroke-opacity="0" d=" M551-550.1v326H349v-326h46.1v39h-34.7v31.9h34.7h13h100.4v-70.9H551z"/>
		<g transform="matrix(2.8866268,0,0,2.8866268,-8.7699846,-2020.649)" opacity="0.1">
			
				<path inkscape:connector-curvature="0" fill="#111211" stroke="#000000" stroke-width="0.1386" stroke-opacity="0" d=" M141.8 540.6l-2.5 0.5l0 0.2c-1.6 0-2.4-0.1-3 1H135c-0.9 0.6-1.5 0.5-1.5 2v0.7h0.3c-0.1 0.9-0.5 0.6-0.5 1.5v0.2 c0 0.6 0.4 1.3 0.7 1.7c-0.1 0.4-0.2 0.3-0.2 0.7c0 1 0.6 1.4 1 2l0 1.4l1.2 1.1v1c0 0.6 1.3 1.5 1.8 1.7c0 1.3 1.1 2.2 2.3 2.3 c0.1 1.2 1.3 1.6 2.3 1.8c-1.7 1.5-2.6 1.5-4.1 3.6c-1.1 1.5-1.9 3.4-2.1 5.8c-0.2 1.7 0.1 2-1 2.9c-0.8 0.6-1.4 1.2-2 2 c-0.8 1-2.3 4-2.3 5.7v1.2c0 2 0.8 4.1 1.6 5.4c0.5 0.8 1.1 1.1 1.3 2.1c0.3 0.9 0.5 1.9 0.8 2.7c1.6 4.2 1.5 6.4 4.7 9.3 c1.4 1.2 2.8 1.6 4.3 2.7c1.1 0.8 3.2 2.2 4.5 2.6c2.3 0.7 2.4 1.7 4.1 2.8c1 0.6 3.7 1.9 5.2 1.9h2c1.7 0 4.2-1 5.3-1.7 c1.7-1.1 2.3-2.2 4.1-3c1.5-0.7 3.2-1.6 4.4-2.5c1.1-0.9 3.1-1.3 4.6-2.5c1.2-0.9 2.4-2.4 3.2-3.8c1.2-2.2 0.8-3.1 1.3-5.8 c0.3-1.7 1.2-3.7 2.1-5c0.8-1.3 1.7-3.4 1.7-5.4v-0.8c0-1.9-1.2-4.5-2.1-5.7c-1.2-1.7-3.4-2.6-3.4-4.5c0-2.3-0.9-4.4-1.9-5.9 c-1.5-2.3-3.2-2.8-4.1-3.9c1.9-0.4 1.9-0.3 2.9-1.7c0.6-0.9 2.2-0.4 2.2-2.4c1-0.7 2-1.1 2-2.8c1-0.7 1.2-0.9 1.1-2.5l0.8-1.1 c0-1.8 0.5-2.3 0.5-3v-0.7c0-0.4-0.1-0.4-0.4-0.7l0.2-1.3c0.2-1.4-1.2-1.8-2.5-1.8c-1.3-0.9-1-1-3.3-1c-1.1-0.7-0.5-0.7-2.3-0.7 c-0.2-0.2-0.9-0.7-1.2-0.7h-0.3c-0.9 0-1 0.3-1.7 0.3c-0.3 0-0.1-0.3-0.7-0.3h-0.7c-0.7 0-1.2 0.2-1.7 0.5 c-0.4-0.1-0.5-0.2-1-0.2h-0.2c-0.6 0-1.1 0.4-1.5 0.7c-0.4-0.1-0.5-0.2-1-0.2c-0.8 0-1.6 0.9-2.2 1.3h-0.8c-1.5 1-4.1 4-4.1 6.3 h-0.3c0-1.6-1.9-4.3-2.8-5.2c-1.4-1.5-1.7-0.7-2.6-1.3c-1.4-0.9-0.4-1.1-3-1.1c-0.3-0.2-0.7-0.6-1.2-0.5l-1.3 0.2 c-0.5-0.3-0.7-0.5-1.5-0.5h-0.5c-0.7 0-0.7 0.3-1.2 0.3c-0.5 0-0.4-0.3-1.2-0.3h-0.7C142.4 540 142.2 540.4 141.8 540.6"/>
			
				<path inkscape:connector-curvature="0" fill="#FFFFFF" stroke="#000000" stroke-width="0.1386" stroke-opacity="0" d=" M144.1 542.9l-2.9-0.4l0.5 1.2c-1.1 0-1-0.5-2.2-0.5l-1.5 0l0.6 1l-3 0l1.2 2.6h-1.3l-0.2 0.1l2 2.2l-1.5 0l2.2 2.5l-1.2 0.1 l2.3 1.9l0.1-0.1v0.5h-1c0.3 0.9 2.1 1.4 3 2l-1.3 0.5l3.2 1l0 0.3l-1 0.5c0.6 0.1 1.5 0.5 2.2 0.5l1.6 0.1l-0.8 0.9 c2.1 0 4.1-0.2 5.6-0.9c1-0.5 3.2-2 3.2-3.3v-0.2c0-1-4.7-4.1-5.7-4.9c-0.9-0.7-6.6-3.8-6.7-3.9c1.7 0.1 5.7 2.5 7.2 3.2 c2.5 1.1 4.2 2.7 6.3 4.1c1-0.5 2.3-1.3 2.3-2.6v-1.7c0-1.3-2.3-5.3-3.3-5.6v0.5c0 0.6 0.1 0.1-0.2 0.5l-2.2-2.3l-0.1 0.1v0.5 c0 0.4-0.1 0.4-0.3 0.6l-2-1.9l-0.1 0.1c0.1 0.2 0.2 0.5 0.2 0.5c0 0.4-0.1 0.2-0.2 0.7l-2.3-1.5l0 0.2l-0.1 1l-3.2-1.1 L144.1 542.9L144.1 542.9z"/>
			
				<path inkscape:connector-curvature="0" fill="#FFFFFF" stroke="#000000" stroke-width="0.1386" stroke-opacity="0" d=" M168.6 543.4l0-1.4l-2.3 1.8l-0.2-1.2l-2.4 2.4l-0.2-0.8c-1.1 0.3-3.3 4.3-3.3 5.8v0.7c0 1.3 1.4 3.3 2.3 3.3 c0.2 0 2.7-1.9 3.1-2.2c1.1-0.7 2.1-1.4 3.3-2c1.2-0.6 6.2-3.1 7.5-3.1c-0.2 0.2-3 1.6-3.5 1.8c-1.1 0.5-2.3 1.3-3.3 2 c-0.9 0.6-5.8 4-5.8 4.8c0 2.6 4.3 4.5 7.1 4.5h1.7v-0.3l-0.1 0.1l-0.5-0.7l3.5-0.5l-0.1-0.2l-0.8-0.5l0-0.2l3.2-1.2l-1.2-0.2 l-0.1-0.2l3.2-1.9l-0.1-0.2h-1c0.1-1.2 1.8-1.1 2.2-2.3l-1.1-0.1l1.9-2.2h-1.2l-0.2-0.1l2-2.3l-1.4 0l1.2-2.6l-2.7 0l0.2-1h-0.8 c-1.4 0-1.8 0.5-3.1 0.4l0.8-1.2l-3.1 0.7l0.6-1.2l-3 1.1l0.2-1l-0.1-0.2L168.6 543.4L168.6 543.4z"/>
			
				<path inkscape:connector-curvature="0" fill="#FFFFFF" stroke="#000000" stroke-width="0.1386" stroke-opacity="0" d=" M141.8 578.5c0 3.9 2.8 6.9 6.6 6.9h1c1.7 0 4.5-2 5.4-3.1c1.2-1.4 2.4-3.5 2.4-6v-1.2c0-3.4-3-4.9-3.3-5.6h-1 c-0.5 0-0.4-0.5-1.3-0.5h-1C145.6 569.1 141.8 573.6 141.8 578.5"/>
			
				<path inkscape:connector-curvature="0" fill="#FFFFFF" stroke="#000000" stroke-width="0.1386" stroke-opacity="0" d=" M164.4 569.3h-0.7c-1.8 1.2-3.5 3.1-3.5 6.1v0.8c0 2.5 1.7 5.1 3 6.4c1.6 1.6 3.7 2.5 6.9 2.5c0.3 0 1.6-0.6 2-0.8 c0.6-0.3 1.1-0.8 1.6-1.4c0.5-0.8 0.8-0.4 1.1-1.7c0.2-0.9 0.5-1.4 0.5-2.5V578c0-2.5-1.5-5.3-2.7-6.6c-1.7-1.7-3.4-2.7-6.7-2.7 C165.1 568.8 164.9 569 164.4 569.3"/>
			
				<path inkscape:connector-curvature="0" fill="#FFFFFF" stroke="#000000" stroke-width="0.1386" stroke-opacity="0" d=" M150.9 590.9v1.3c0 1.7 1.2 3.5 2.2 4.3c0.7 0.5 0.9 1 1.8 1.4c0.2 0.1 2.5 0.8 2.5 0.8h2.3c1.2 0 2-0.5 2.8-0.8 c1.6-0.7 1-0.7 2.3-1.5c1.4-0.9 2.2-3.1 2.2-5.4v-0.3c0-2.2-1.2-3.4-2.4-4.5c-0.4-0.4-1.6-1.3-2-1.5c-0.2-0.1-2.8-0.8-2.9-0.8 C155.1 583.8 150.9 586.5 150.9 590.9"/>
			
				<path inkscape:connector-curvature="0" fill="#FFFFFF" stroke="#000000" stroke-width="0.1386" stroke-opacity="0" d=" M167.6 598l0.2 2c1 0.3 0.2 1.5 2.3 1.5h0.2c2.6 0 5.4-1.2 6.6-2.5c1.1-1.2 3.1-3.8 3.1-6.1v-1.7c0-2-0.8-4.5-3-4.5h-0.7 C172.9 586.8 167.1 593.9 167.6 598"/>
			
				<path inkscape:connector-curvature="0" fill="#FFFFFF" stroke="#000000" stroke-width="0.1386" stroke-opacity="0" d=" M137.5 590.9l0 0.7l0.2 2.6c0.5 0.8 0.7 1.9 1.2 2.8c0.3 0.6 1.4 1.7 1.9 2.3c0.9 0.9 4 2.2 5.9 2.2h0.2c2.1 0 2.6-1.5 2.6-3.5 c0-2.6-1.5-5-2.7-6.5c-0.9-1.1-3.9-3.7-5.6-3.7h-1.5C138.6 587.8 137.5 589.6 137.5 590.9"/>
			
				<path inkscape:connector-curvature="0" fill="#FFFFFF" stroke="#000000" stroke-width="0.1386" stroke-opacity="0" d=" M151.4 563.5v1c0 1.3 1 2 2 2.5c0.4 0.2 2.8 1.3 3.2 1.3l3.8 0.1l2.6-0.4c0.3-0.6 1.1-0.7 1.7-1.1c0.7-0.4 0.7-1.3 1.4-1.6v-0.5 c0-1.6-1.3-2.8-2.3-3.3c-1.3-0.5-1.7-1.7-4.1-1.7h-2C154 559.8 151.8 563.4 151.4 563.5"/>
			
				<path inkscape:connector-curvature="0" fill="#FFFFFF" stroke="#000000" stroke-width="0.1386" stroke-opacity="0" d=" M150.9 604c0 2 4.4 4.6 6.3 4.6h2.8c0.4 0 2.8-1 3.3-1c0.7-1.2 3.1-1.9 3.1-3.8V603c-0.5-0.2-2.1-1.2-3-1.4 c-0.8-0.2-3.4-0.4-4.2-0.4c-0.8 0-4.2 0.4-4.9 0.6C153.4 602.1 150.9 603.1 150.9 604"/>
			
				<path inkscape:connector-curvature="0" fill="#FFFFFF" stroke="#000000" stroke-width="0.1386" stroke-opacity="0" d=" M177.5 574.6v4.3c0 1.8 0.8 3.1 0.8 5c0.8 0.3 0.6 3.3 2.5 3.3h0.5c0.1-0.9 0.7-1 1.1-1.7c0.3-0.5 0.5-1.6 1-1.8l0.2-3.1v-1.2 c0-1.8-3.4-6.1-5-6.1h-0.2C177.6 573.2 178.3 574.2 177.5 574.6"/>
			
				<path inkscape:connector-curvature="0" fill="#FFFFFF" stroke="#000000" stroke-width="0.1386" stroke-opacity="0" d=" M133.2 580.8v0.7c0 1.9 1.4 5.8 3 5.8h0.2c1.6 0 3-6.4 3-8.6v-1.5c0-1.1-0.3-3.6-1.3-3.6h-0.3c-0.5 0-2.8 2.3-3.1 2.7 C134 577.4 133.2 579.2 133.2 580.8"/>
			
				<path inkscape:connector-curvature="0" fill="#FFFFFF" stroke="#000000" stroke-width="0.1386" stroke-opacity="0" d=" M142.5 562.6c-0.8 1.4-1.6 0.9-2.5 2.9c-0.7 1.5-1.4 1.8-1.4 4v1.7h0.7c0.9 0 4.9-2.9 5.6-3.5c0.9-0.8 1.5-1.5 2.4-2.2 c0.7-0.5 1.6-2.2 2.4-2.2c0.1-0.6 0.3-0.6 0.3-1.2V562c0-0.7-1.3-0.7-2-0.7h-0.5c-1.3 0-1.8 0.2-2.7 0.5 c-0.5 0.1-0.8 0.1-1.1 0.4C143.2 562.4 143.2 562.6 142.5 562.6"/>
			
				<path inkscape:connector-curvature="0" fill="#FFFFFF" stroke="#000000" stroke-width="0.1386" stroke-opacity="0" d=" M166.8 561.7l0.2 1.3c1.2 0.8 1.5 1.6 2.5 2.5c0.7 0.5 2.1 2.2 2.6 2.5c0.3 0.2 6.1 5 6.1 3v-0.7c0-4.9-3.8-8.8-8.8-8.8l-1.2 0 L166.8 561.7L166.8 561.7z"/>
		</g>
		<text transform="matrix(1 0 0 1 415.2486 -525.6493)" font-family="'Arial-Black'" font-size="17.2581">SD Card</text>
		<g enable-background="new    ">
			
				<text transform="matrix(1 0 0 1 415.2486 -525.6493)" fill="none" stroke="#000000" stroke-width="0.4" font-family="'Arial-Black'" font-size="17.2581">SD Card</text>
		</g>
		<text transform="matrix(1 0 0 1 415.2486 -504.077)" font-family="'Arial-Black'" font-size="17.2581">Slot</text>
		<g enable-background="new    ">
			
				<text transform="matrix(1 0 0 1 415.2486 -504.077)" fill="none" stroke="#000000" stroke-width="0.4" font-family="'Arial-Black'" font-size="17.2581">Slot</text>
		</g>
		<text transform="matrix(1 0 0 1 387.8775 -357.6649)" font-family="'Arial-BoldMT'" font-size="24">2mm foam</text>
		<g enable-background="new    ">
			
				<text transform="matrix(1 0 0 1 387.8775 -357.6649)" fill="none" stroke="#000000" stroke-width="0.4" font-family="'Arial-BoldMT'" font-size="24">2mm foam</text>
		</g>
		<text transform="matrix(1 0 0 1 398.5475 -327.6649)" font-family="'Arial-BoldMT'" font-size="24">template</text>
		<g enable-background="new    ">
			
				<text transform="matrix(1 0 0 1 398.5475 -327.6649)" fill="none" stroke="#000000" stroke-width="0.4" font-family="'Arial-BoldMT'" font-size="24">template</text>
		</g>
	</g>
	
		<path inkscape:connector-curvature="0" fill="none" stroke="#231F20" stroke-width="0.5669" stroke-miterlimit="22.9256" d=" M186.2-518.2v326h-202v-326h46.1v39H7.5v31.9h22.7h13h100.4v-70.9H186.2z"/>
</g>
</svg>
